<?xml version="1.0" encoding="UTF-8" standalone="no"?>
<!-- Created with Inkscape (http://www.inkscape.org/) -->

<svg
   xmlns:dc="http://purl.org/dc/elements/1.1/"
   xmlns:cc="http://creativecommons.org/ns#"
   xmlns:rdf="http://www.w3.org/1999/02/22-rdf-syntax-ns#"
   xmlns:svg="http://www.w3.org/2000/svg"
   xmlns="http://www.w3.org/2000/svg"
   xmlns:sodipodi="http://sodipodi.sourceforge.net/DTD/sodipodi-0.dtd"
   xmlns:inkscape="http://www.inkscape.org/namespaces/inkscape"
   id="svg2"
   version="1.1"
   inkscape:version="0.91 r13725"
   xml:space="preserve"
   width="165.83099"
   height="210.0004"
   viewBox="0 0 165.83099 210.00039"
   sodipodi:docname="Ministère_de_l'Environnement,_de_l'Énergie_et_de_la_Mer_(2016-2017).svg"><metadata
     id="metadata8"><rdf:RDF><cc:Work
         rdf:about=""><dc:format>image/svg+xml</dc:format><dc:type
           rdf:resource="http://purl.org/dc/dcmitype/StillImage" /><dc:title></dc:title></cc:Work></rdf:RDF></metadata><defs
     id="defs6"><clipPath
       clipPathUnits="userSpaceOnUse"
       id="clipPath18"><path
         d="m 484.725,42.52 68.031,0 0,87.302 -68.031,0 0,-87.302 z"
         id="path20"
         inkscape:connector-curvature="0" /></clipPath><clipPath
       clipPathUnits="userSpaceOnUse"
       id="clipPath214"><path
         d="m 494.583,104.486 48.179,0 0,16.171 -48.179,0 0,-16.171 z"
         id="path216"
         inkscape:connector-curvature="0" /></clipPath><clipPath
       clipPathUnits="userSpaceOnUse"
       id="clipPath254"><path
         d="m 484.725,42.52 68.031,0 0,87.302 -68.031,0 0,-87.302 z"
         id="path256"
         inkscape:connector-curvature="0" /></clipPath></defs><sodipodi:namedview
     pagecolor="#ffffff"
     bordercolor="#666666"
     borderopacity="1"
     objecttolerance="10"
     gridtolerance="10"
     guidetolerance="10"
     inkscape:pageopacity="0"
     inkscape:pageshadow="2"
     inkscape:window-width="1920"
     inkscape:window-height="1017"
     id="namedview4"
     showgrid="false"
     fit-margin-left="5"
     fit-margin-top="5"
     fit-margin-right="5"
     fit-margin-bottom="5"
     inkscape:zoom="1.7940585"
     inkscape:cx="26.924652"
     inkscape:cy="51.723977"
     inkscape:window-x="-8"
     inkscape:window-y="-8"
     inkscape:window-maximized="1"
     inkscape:current-layer="g10" /><g
     id="g10"
     inkscape:groupmode="layer"
     inkscape:label="Bilan énergétique de la france métropolitaine en 2016"
     transform="matrix(1.25,0,0,-1.25,-565.51936,212.70957)"><g
       id="g5024"
       transform="matrix(1.8328692,0,0,1.8328692,-432.04916,-71.766259)"><path
         inkscape:connector-curvature="0"
         id="path12"
         style="fill:#ffffff;fill-opacity:1;fill-rule:nonzero;stroke:none"
         d="m 485.024,42.803 67.454,0 0,86.729 -67.454,0 0,-86.729 z" /><g
         id="g14"><g
           clip-path="url(#clipPath18)"
           id="g16"><g
             transform="translate(552.4783,42.8035)"
             id="g22"><path
               inkscape:connector-curvature="0"
               id="path24"
               style="fill:none;stroke:#2b2b2a;stroke-width:0.56699997;stroke-linecap:butt;stroke-linejoin:miter;stroke-miterlimit:4;stroke-dasharray:none;stroke-opacity:1"
               d="m 0,0 -67.455,0 0,86.728 L 0,86.728 0,0 Z" /></g><g
             transform="translate(517.427,95.3894)"
             id="g26"><path
               inkscape:connector-curvature="0"
               id="path28"
               style="fill:#2b2b2a;fill-opacity:1;fill-rule:nonzero;stroke:none"
               d="m 0,0 c -0.043,-0.059 -0.063,-0.138 -0.07,-0.297 -0.011,-0.17 -0.013,-0.301 -0.013,-0.548 0,-0.09 0.002,-0.364 0.002,-0.638 0,-0.276 -0.041,-0.443 -0.156,-0.61 -0.184,-0.266 -0.485,-0.401 -0.881,-0.401 -0.25,0 -0.44,0.049 -0.618,0.167 -0.278,0.179 -0.385,0.413 -0.385,0.833 0,0.428 0.008,0.614 0.008,0.755 0,0.2 0.013,0.41 -0.023,0.61 -0.025,0.141 -0.1,0.2 -0.266,0.217 l 0,0.11 0.092,-0.003 C -2.207,0.19 -2.061,0.19 -1.871,0.19 c 0.191,0 0.338,0 0.44,0.005 l 0.091,0.003 0,-0.11 C -1.462,0.071 -1.522,0.04 -1.562,-0.028 -1.596,-0.086 -1.614,-0.167 -1.617,-0.341 -1.625,-0.59 -1.628,-0.836 -1.628,-1.086 c 0,-0.681 0.014,-0.811 0.138,-0.955 0.095,-0.111 0.258,-0.186 0.447,-0.186 0.267,0 0.525,0.134 0.603,0.401 0.051,0.169 0.059,0.293 0.059,0.74 l 0,0.393 c 0,0.452 -0.012,0.59 -0.054,0.658 -0.044,0.071 -0.104,0.111 -0.208,0.123 l 0,0.11 C -0.484,0.19 -0.427,0.19 -0.23,0.19 c 0.202,0 0.258,0 0.416,0.008 l 0,-0.11 C 0.098,0.076 0.043,0.052 0,0" /></g><g
             transform="translate(519.8427,93.0029)"
             id="g30"><path
               inkscape:connector-curvature="0"
               id="path32"
               style="fill:#2b2b2a;fill-opacity:1;fill-rule:nonzero;stroke:none"
               d="m 0,0 c -0.035,-0.059 -0.073,-0.071 -0.292,-0.071 -0.133,0 -0.266,0.008 -0.4,0.012 -0.191,0.003 -0.382,0.011 -0.571,0.011 -0.189,0 -0.381,-0.003 -0.57,-0.011 l 0,0.111 c 0.177,0.015 0.257,0.119 0.273,0.293 0.01,0.12 0.01,0.247 0.01,0.452 l 0,1.123 c 0,0.209 -0.01,0.304 -0.042,0.388 -0.036,0.103 -0.107,0.15 -0.241,0.167 l 0,0.11 1.854,0 C 0.021,2.47 0.018,2.351 0.018,2.236 0.018,2.141 0.013,2.05 0.021,1.955 l -0.143,0 C -0.148,2.261 -0.28,2.343 -0.752,2.343 -0.839,2.343 -0.954,2.34 -1.049,2.335 -1.057,2.181 -1.061,2.129 -1.061,1.9 l 0,-0.46 c 0.059,-0.005 0.107,-0.005 0.178,-0.005 0.413,0 0.54,0.06 0.563,0.275 l 0.143,0 C -0.185,1.647 -0.185,1.514 -0.185,1.317 c 0,-0.203 0.004,-0.322 0.008,-0.384 l -0.143,0 c -0.011,0.225 -0.118,0.281 -0.528,0.281 -0.071,0 -0.143,-0.004 -0.213,-0.004 0,-0.25 0.004,-0.5 0.004,-0.75 0,-0.167 0.028,-0.221 0.124,-0.246 0.06,-0.015 0.149,-0.02 0.272,-0.02 0.429,0 0.578,0.096 0.67,0.421 L 0.163,0.584 C 0.109,0.306 0.044,0.076 0,0" /></g><g
             transform="translate(523.5119,95.3716)"
             id="g34"><path
               inkscape:connector-curvature="0"
               id="path36"
               style="fill:#2b2b2a;fill-opacity:1;fill-rule:nonzero;stroke:none"
               d="m 0,0 c -0.006,0.346 -0.207,0.48 -0.748,0.48 -0.112,0 -0.219,-0.004 -0.338,-0.014 -0.009,-0.332 -0.009,-0.561 -0.009,-1.084 0.114,-0.006 0.174,-0.01 0.255,-0.01 0.446,0 0.579,0.077 0.606,0.336 l 0.169,0 c 0,-0.134 -0.008,-0.274 -0.008,-0.408 0,-0.178 0.008,-0.36 0.008,-0.539 l -0.169,0 c -0.035,0.289 -0.146,0.347 -0.649,0.347 -0.088,0 -0.12,0 -0.212,-0.006 l 0,-0.537 c 0,-0.105 0,-0.221 0.005,-0.345 0.01,-0.264 0.028,-0.494 0.342,-0.514 l 0,-0.133 -0.115,0.004 c -0.121,0.004 -0.298,0.004 -0.524,0.004 -0.23,0 -0.403,0 -0.528,-0.004 l -0.113,-0.004 0,0.133 c 0.215,0.02 0.31,0.144 0.329,0.356 0.013,0.143 0.013,0.23 0.013,0.705 l 0,1.2 c 0,0.255 -0.013,0.37 -0.05,0.47 -0.044,0.124 -0.131,0.183 -0.292,0.201 l 0,0.134 2.206,0 C 0.168,0.681 0.168,0.529 0.168,0.327 0.168,0.134 0.168,0.106 0.178,0 L 0,0 Z" /></g><g
             transform="translate(525.1442,95.3949)"
             id="g38"><path
               inkscape:connector-curvature="0"
               id="path40"
               style="fill:#2b2b2a;fill-opacity:1;fill-rule:nonzero;stroke:none"
               d="m 0,0 c -0.078,0 -0.149,-0.013 -0.236,-0.033 0,-0.234 -0.003,-0.658 -0.003,-0.987 0.041,-0.008 0.122,-0.012 0.174,-0.012 0.323,0 0.542,0.202 0.542,0.512 C 0.477,-0.219 0.275,0 0,0 m 1.022,-2.483 c -0.148,0 -0.231,0.02 -0.315,0.076 -0.131,0.087 -0.269,0.325 -0.349,0.46 -0.134,0.233 -0.287,0.482 -0.427,0.693 -0.024,-0.004 -0.044,-0.004 -0.06,-0.004 -0.04,0 -0.072,0.004 -0.11,0.004 l 0,-0.211 c 0,-0.106 0.003,-0.213 0.003,-0.32 0.005,-0.214 0.008,-0.305 0.038,-0.388 0.042,-0.103 0.112,-0.155 0.245,-0.167 l 0,-0.11 -0.092,0.003 c -0.104,0.004 -0.247,0 -0.433,0 -0.182,0 -0.326,0.004 -0.428,0 l -0.095,-0.003 0,0.11 c 0.098,0.007 0.147,0.028 0.193,0.078 0.045,0.052 0.072,0.124 0.08,0.215 0.011,0.119 0.016,0.19 0.016,0.582 l 0,0.668 c 0,0.483 -0.016,0.602 -0.044,0.713 -0.026,0.107 -0.109,0.15 -0.245,0.167 l 0,0.11 c 0.078,-0.008 0.159,-0.003 0.238,-0.003 0.207,0 0.27,0 0.515,0.011 0.213,0.008 0.336,0.012 0.431,0.012 0.269,0 0.433,-0.04 0.568,-0.135 0.15,-0.107 0.251,-0.313 0.251,-0.519 0,-0.326 -0.216,-0.591 -0.58,-0.726 C 0.573,-1.356 0.691,-1.547 0.83,-1.765 0.957,-1.967 1.083,-2.142 1.185,-2.241 1.239,-2.3 1.274,-2.32 1.35,-2.34 l 0,-0.11 C 1.246,-2.475 1.144,-2.483 1.022,-2.483" /></g><g
             transform="translate(527.7391,94.8903)"
             id="g42"><path
               inkscape:connector-curvature="0"
               id="path44"
               style="fill:#2b2b2a;fill-opacity:1;fill-rule:nonzero;stroke:none"
               d="m 0,0 c -0.101,-0.27 -0.243,-0.619 -0.304,-0.812 l 0.586,0 L 0,0 Z m 1.284,-1.943 c -0.098,0.005 -0.24,0.005 -0.422,0.005 -0.185,0 -0.329,0 -0.429,-0.005 l -0.092,-0.003 0,0.111 c 0.128,0.007 0.203,0.076 0.203,0.186 0,0.04 -0.011,0.095 -0.05,0.214 -0.049,0.147 -0.08,0.246 -0.128,0.381 l -0.761,0 -0.08,-0.23 c -0.058,-0.178 -0.09,-0.31 -0.09,-0.377 0,-0.115 0.052,-0.167 0.179,-0.174 l 0,-0.111 c -0.152,0.003 -0.207,0.008 -0.397,0.008 -0.186,0 -0.243,-0.005 -0.393,-0.008 l 0,0.111 c 0.059,0.007 0.079,0.015 0.124,0.055 0.074,0.067 0.149,0.206 0.269,0.507 l 0.377,0.961 c 0.102,0.257 0.257,0.673 0.364,1.009 l 0.269,0 C 0.263,0.575 0.346,0.381 0.402,0.237 L 0.96,-1.192 c 0.094,-0.243 0.164,-0.385 0.214,-0.477 0.055,-0.095 0.11,-0.142 0.208,-0.166 l 0,-0.111 -0.098,0.003 z" /></g><g
             transform="translate(531.8458,95.357)"
             id="g46"><path
               inkscape:connector-curvature="0"
               id="path48"
               style="fill:#2b2b2a;fill-opacity:1;fill-rule:nonzero;stroke:none"
               d="m 0,0 c -0.045,-0.07 -0.052,-0.138 -0.059,-0.343 -0.012,-0.358 -0.017,-0.911 -0.017,-1.178 l 0,-0.607 c 0,-0.091 0.011,-0.231 0.011,-0.285 l -0.269,0 c -0.256,0.337 -0.792,0.991 -0.792,0.991 -0.062,0.079 -0.558,0.689 -0.808,0.995 0,-0.083 -0.005,-0.031 -0.005,-0.289 l 0,-0.259 c 0,-0.296 0.005,-0.59 0.017,-0.887 0.008,-0.166 0.023,-0.25 0.062,-0.324 0.041,-0.08 0.101,-0.112 0.216,-0.116 l 0,-0.111 c -0.141,0.008 -0.281,0.008 -0.42,0.008 -0.144,0 -0.282,0 -0.425,-0.008 l 0,0.111 c 0.261,0.007 0.269,0.226 0.278,0.431 0.003,0.168 0.007,0.306 0.007,0.56 l 0,0.836 c 0,0.33 -0.016,0.409 -0.075,0.497 -0.039,0.062 -0.09,0.086 -0.21,0.099 l 0,0.11 c 0.132,-0.008 0.177,-0.008 0.346,-0.008 0.161,0 0.209,0 0.338,0.008 0.049,-0.088 0.125,-0.167 0.398,-0.5 0.388,-0.472 0.736,-0.871 1.066,-1.284 l 0,0.865 c 0,0.396 -0.007,0.495 -0.028,0.598 -0.029,0.128 -0.104,0.191 -0.25,0.211 l 0,0.11 c 0.163,-0.008 0.217,-0.008 0.42,-0.008 0.202,0 0.258,0 0.42,0.008 l 0,-0.11 C 0.115,0.116 0.055,0.096 0,0" /></g><g
             transform="translate(534.6113,93.0395)"
             id="g50"><path
               inkscape:connector-curvature="0"
               id="path52"
               style="fill:#2b2b2a;fill-opacity:1;fill-rule:nonzero;stroke:none"
               d="m 0,0 c -0.256,-0.104 -0.484,-0.144 -0.797,-0.144 l -0.035,-0.157 c 0.021,0.004 0.06,0 0.075,0 0.151,0 0.249,-0.108 0.249,-0.239 0,-0.213 -0.17,-0.364 -0.44,-0.364 -0.079,0 -0.149,0.017 -0.237,0.051 l 0.055,0.154 c 0.051,-0.02 0.1,-0.031 0.142,-0.031 0.113,0 0.188,0.055 0.188,0.155 0,0.08 -0.041,0.126 -0.099,0.126 -0.035,0 -0.06,-0.011 -0.089,-0.031 l -0.086,0.024 0.079,0.321 c -0.347,0.031 -0.602,0.146 -0.816,0.369 -0.246,0.249 -0.377,0.59 -0.377,0.992 0,0.854 0.551,1.37 1.459,1.37 0.273,0 0.539,-0.04 0.768,-0.115 C 0.031,2.389 0.031,2.299 0.031,2.212 0.031,2.145 0.036,2.001 0.039,1.911 l -0.155,0 c -0.062,0.281 -0.289,0.431 -0.648,0.431 -0.558,0 -0.9,-0.372 -0.9,-0.99 0,-0.714 0.401,-1.233 0.952,-1.233 0.334,0 0.558,0.165 0.647,0.483 L 0.088,0.571 C 0.05,0.436 0.016,0.21 0,0" /></g><g
             transform="translate(536.0781,94.8903)"
             id="g54"><path
               inkscape:connector-curvature="0"
               id="path56"
               style="fill:#2b2b2a;fill-opacity:1;fill-rule:nonzero;stroke:none"
               d="m 0,0 c -0.103,-0.27 -0.247,-0.619 -0.306,-0.812 l 0.586,0 L 0,0 Z m 1.284,-1.943 c -0.1,0.005 -0.242,0.005 -0.425,0.005 -0.185,0 -0.328,0 -0.428,-0.005 l -0.09,-0.003 0,0.111 c 0.125,0.007 0.201,0.076 0.201,0.186 0,0.04 -0.011,0.095 -0.051,0.214 -0.047,0.147 -0.079,0.246 -0.127,0.381 l -0.762,0 -0.078,-0.23 c -0.059,-0.178 -0.091,-0.31 -0.091,-0.377 0,-0.115 0.05,-0.167 0.178,-0.174 l 0,-0.111 c -0.15,0.003 -0.208,0.008 -0.397,0.008 -0.185,0 -0.241,-0.005 -0.392,-0.008 l 0,0.111 c 0.061,0.007 0.08,0.015 0.122,0.055 0.076,0.067 0.151,0.206 0.27,0.507 l 0.377,0.961 c 0.103,0.257 0.255,0.673 0.365,1.009 l 0.268,0 C 0.261,0.575 0.344,0.381 0.398,0.237 l 0.56,-1.429 c 0.095,-0.243 0.163,-0.385 0.214,-0.477 0.056,-0.095 0.112,-0.142 0.207,-0.166 l 0,-0.111 -0.095,0.003 z" /></g><g
             transform="translate(538.6564,92.9476)"
             id="g58"><path
               inkscape:connector-curvature="0"
               id="path60"
               style="fill:#2b2b2a;fill-opacity:1;fill-rule:nonzero;stroke:none"
               d="m 0,0 c -0.099,0.005 -0.245,0.005 -0.431,0.005 -0.192,0 -0.333,0 -0.435,-0.005 l -0.098,-0.003 0,0.11 c 0.187,0.015 0.258,0.111 0.274,0.294 0.012,0.119 0.015,0.189 0.015,0.581 l 0,0.668 c 0,0.103 -0.003,0.21 -0.003,0.325 0,0.209 -0.008,0.304 -0.039,0.388 -0.036,0.103 -0.111,0.15 -0.247,0.167 l 0,0.11 0.098,-0.003 c 0.102,-0.005 0.243,-0.005 0.435,-0.005 0.186,0 0.332,0 0.431,0.005 l 0.096,0.003 0,-0.11 C -0.075,2.518 -0.161,2.409 -0.178,2.232 -0.19,2.117 -0.19,2.006 -0.19,1.65 l 0,-0.668 c 0,-0.519 0.003,-0.606 0.043,-0.708 0.038,-0.103 0.108,-0.155 0.243,-0.167 l 0,-0.11 L 0,0 Z" /></g><g
             transform="translate(539.8876,92.8956)"
             id="g62"><path
               inkscape:connector-curvature="0"
               id="path64"
               style="fill:#2b2b2a;fill-opacity:1;fill-rule:nonzero;stroke:none"
               d="m 0,0 c -0.228,0 -0.395,0.032 -0.665,0.135 -0.011,0.151 -0.039,0.381 -0.071,0.572 l 0.15,0.024 C -0.49,0.41 -0.28,0.242 0.024,0.242 c 0.281,0 0.472,0.148 0.472,0.369 0,0.178 -0.122,0.302 -0.3,0.412 L -0.22,1.29 c -0.287,0.181 -0.453,0.372 -0.453,0.72 0,0.445 0.337,0.729 0.861,0.729 0.253,0 0.464,-0.047 0.651,-0.143 C 0.833,2.503 0.833,2.47 0.833,2.347 c 0,-0.142 0,-0.183 0.006,-0.293 l -0.153,0 C 0.631,2.34 0.453,2.499 0.178,2.499 c -0.245,0 -0.423,-0.156 -0.423,-0.373 0,-0.191 0.131,-0.317 0.342,-0.452 L 0.433,1.456 C 0.754,1.245 0.936,1.043 0.936,0.727 0.936,0.293 0.556,0 0,0" /></g><g
             transform="translate(543.0756,93.0029)"
             id="g66"><path
               inkscape:connector-curvature="0"
               id="path68"
               style="fill:#2b2b2a;fill-opacity:1;fill-rule:nonzero;stroke:none"
               d="m 0,0 c -0.036,-0.059 -0.075,-0.071 -0.292,-0.071 -0.135,0 -0.267,0.008 -0.402,0.012 -0.191,0.003 -0.381,0.011 -0.569,0.011 -0.191,0 -0.382,-0.003 -0.572,-0.011 l 0,0.111 c 0.179,0.015 0.255,0.119 0.273,0.293 0.012,0.12 0.012,0.247 0.012,0.452 l 0,1.123 c 0,0.209 -0.012,0.304 -0.044,0.388 -0.034,0.103 -0.106,0.15 -0.241,0.167 l 0,0.11 1.855,0 C 0.02,2.47 0.014,2.351 0.014,2.236 0.014,2.141 0.011,2.05 0.02,1.955 l -0.143,0 C -0.151,2.261 -0.28,2.343 -0.753,2.343 -0.84,2.343 -0.955,2.34 -1.052,2.335 -1.058,2.181 -1.063,2.129 -1.063,1.9 l 0,-0.46 c 0.06,-0.005 0.108,-0.005 0.178,-0.005 0.412,0 0.541,0.06 0.564,0.275 l 0.144,0 C -0.186,1.647 -0.186,1.514 -0.186,1.317 c 0,-0.203 0.003,-0.322 0.009,-0.384 l -0.144,0 c -0.012,0.225 -0.119,0.281 -0.528,0.281 -0.071,0 -0.143,-0.004 -0.214,-0.004 0,-0.25 0.005,-0.5 0.005,-0.75 0,-0.167 0.026,-0.221 0.122,-0.246 0.059,-0.015 0.151,-0.02 0.274,-0.02 0.427,0 0.579,0.096 0.671,0.421 L 0.163,0.584 C 0.106,0.306 0.043,0.076 0,0" /></g><g
             transform="translate(515.9156,101.0618)"
             id="g70"><path
               inkscape:connector-curvature="0"
               id="path72"
               style="fill:#2b2b2a;fill-opacity:1;fill-rule:nonzero;stroke:none"
               d="m 0,0 c -0.154,0 -0.308,-0.117 -0.439,-0.333 -0.148,-0.235 -0.252,-0.548 -0.252,-0.752 0,-0.119 0.058,-0.185 0.155,-0.185 0.142,0 0.393,0.128 0.489,0.224 0.055,0.053 0.086,0.131 0.125,0.278 0.061,0.235 0.119,0.455 0.154,0.71 C 0.146,-0.02 0.065,0 0,0 m 0.178,-1.429 c -0.071,0 -0.094,0.043 -0.128,0.233 -0.285,-0.163 -0.494,-0.237 -0.699,-0.237 -0.231,0 -0.366,0.121 -0.366,0.332 0,0.204 0.099,0.494 0.255,0.733 0.207,0.325 0.467,0.529 0.861,0.529 0.173,0 0.331,-0.031 0.497,-0.073 L 0.578,0.027 C 0.44,-0.417 0.339,-0.908 0.339,-1.074 c 0,-0.104 0.024,-0.162 0.07,-0.162 0.031,0 0.112,0.023 0.208,0.058 L 0.63,-1.298 C 0.432,-1.371 0.242,-1.429 0.178,-1.429" /></g><g
             transform="translate(517.8035,101.9028)"
             id="g74"><path
               inkscape:connector-curvature="0"
               id="path76"
               style="fill:#2b2b2a;fill-opacity:1;fill-rule:nonzero;stroke:none"
               d="m 0,0 c -0.129,-0.513 -0.256,-1.085 -0.38,-1.63 -0.039,-0.177 -0.057,-0.293 -0.057,-0.35 0,-0.057 0.027,-0.085 0.086,-0.085 0.038,0 0.106,0.016 0.21,0.046 l 0.01,-0.108 C -0.33,-2.204 -0.568,-2.27 -0.673,-2.27 c -0.073,0 -0.116,0.043 -0.116,0.117 0,0.053 0.013,0.122 0.07,0.365 0.119,0.51 0.251,1.055 0.357,1.541 0.044,0.224 0.067,0.335 0.067,0.371 0,0.045 -0.023,0.068 -0.064,0.068 -0.039,0 -0.109,-0.015 -0.17,-0.037 l -0.009,0.116 c 0.196,0.069 0.413,0.122 0.52,0.122 0.055,0 0.082,-0.024 0.082,-0.065 C 0.064,0.289 0.049,0.2 0,0" /></g><g
             transform="translate(518.3371,99.6368)"
             id="g78"><path
               inkscape:connector-curvature="0"
               id="path80"
               style="fill:#2b2b2a;fill-opacity:1;fill-rule:nonzero;stroke:none"
               d="m 0,0 c -0.077,0 -0.127,0.043 -0.127,0.113 0,0.034 0.011,0.096 0.031,0.181 0.051,0.204 0.121,0.482 0.158,0.629 0.055,0.201 0.077,0.339 0.077,0.394 0,0.05 -0.022,0.073 -0.065,0.073 C 0.04,1.39 0.005,1.379 -0.077,1.355 L -0.104,1.347 -0.116,1.455 C 0.099,1.537 0.306,1.586 0.411,1.586 0.469,1.586 0.49,1.568 0.49,1.521 0.49,1.475 0.473,1.351 0.402,1.08 L 0.344,0.852 C 0.248,0.478 0.224,0.347 0.224,0.286 c 0,-0.057 0.031,-0.093 0.09,-0.093 0.034,0 0.104,0.016 0.21,0.055 L 0.533,0.139 C 0.329,0.058 0.11,0 0,0 m 0.422,1.972 c -0.119,0 -0.198,0.073 -0.198,0.186 0,0.138 0.102,0.235 0.239,0.235 0.117,0 0.191,-0.069 0.191,-0.181 0,-0.139 -0.097,-0.24 -0.232,-0.24" /></g><g
             transform="translate(520.2773,100.988)"
             id="g82"><path
               inkscape:connector-curvature="0"
               id="path84"
               style="fill:#2b2b2a;fill-opacity:1;fill-rule:nonzero;stroke:none"
               d="m 0,0 -0.319,0.007 -0.163,-0.791 c -0.042,-0.204 -0.047,-0.261 -0.047,-0.293 0,-0.053 0.029,-0.085 0.079,-0.085 0.025,0 0.085,0.015 0.175,0.043 l 0.042,0.011 0.012,-0.113 c -0.204,-0.08 -0.411,-0.135 -0.524,-0.135 -0.079,0 -0.13,0.039 -0.13,0.113 0,0.066 0.016,0.163 0.045,0.282 0.035,0.134 0.064,0.246 0.094,0.398 l 0.12,0.57 -0.205,-0.004 0.026,0.124 c 0.263,0.046 0.351,0.255 0.424,0.479 L -0.184,0.645 -0.282,0.189 0.039,0.193 0,0 Z" /></g><g
             transform="translate(521.4326,101.0685)"
             id="g86"><path
               inkscape:connector-curvature="0"
               id="path88"
               style="fill:#2b2b2a;fill-opacity:1;fill-rule:nonzero;stroke:none"
               d="m 0,0 c -0.185,0 -0.382,-0.255 -0.479,-0.629 l 0.038,0 c 0.359,0 0.63,0.19 0.63,0.436 C 0.189,-0.085 0.103,0 0,0 m -0.398,-0.771 c -0.028,0 -0.062,0 -0.111,0.004 -0.012,-0.07 -0.017,-0.128 -0.017,-0.187 0,-0.195 0.07,-0.3 0.204,-0.3 0.125,0 0.278,0.065 0.506,0.209 l 0.044,-0.132 c -0.288,-0.177 -0.503,-0.259 -0.698,-0.259 -0.241,0 -0.371,0.144 -0.371,0.401 0,0.637 0.432,1.189 0.929,1.189 0.243,0 0.385,-0.111 0.385,-0.304 0,-0.355 -0.377,-0.621 -0.871,-0.621 M 0.03,0.394 -0.093,0.495 0.377,1.027 0.725,0.943 0.03,0.394 Z" /></g><g
             transform="translate(528.7739,101.6943)"
             id="g90"><path
               inkscape:connector-curvature="0"
               id="path92"
               style="fill:#2b2b2a;fill-opacity:1;fill-rule:nonzero;stroke:none"
               d="m 0,0 -0.111,0 c 0.003,0.039 0.006,0.069 0.006,0.088 0,0.077 -0.026,0.14 -0.072,0.186 -0.074,0.07 -0.209,0.097 -0.501,0.097 -0.082,0 -0.191,-0.003 -0.286,-0.008 -0.071,-0.317 -0.132,-0.621 -0.201,-0.951 0.073,0 0.145,-0.004 0.22,-0.004 0.428,0 0.513,0.04 0.595,0.291 l 0.102,0 c -0.061,-0.251 -0.11,-0.498 -0.146,-0.752 l -0.108,0 c 0.005,0.026 0.008,0.05 0.008,0.064 0,0.067 -0.027,0.128 -0.073,0.163 -0.066,0.05 -0.142,0.062 -0.374,0.062 -0.122,0 -0.158,-0.004 -0.26,-0.009 L -1.25,-1.03 c -0.074,-0.371 -0.1,-0.545 -0.1,-0.653 0,-0.158 0.07,-0.232 0.227,-0.251 l -0.015,-0.08 -0.063,0.003 c -0.029,0 -0.2,0.004 -0.345,0.004 -0.155,0 -0.442,0 -0.491,-0.004 l -0.067,-0.003 0.017,0.08 c 0.115,0.011 0.184,0.047 0.238,0.12 0.063,0.077 0.105,0.185 0.155,0.401 0.055,0.22 0.075,0.337 0.155,0.738 l 0.061,0.304 c 0.061,0.306 0.084,0.49 0.084,0.586 0,0.17 -0.06,0.24 -0.225,0.26 l 0.015,0.084 1.713,0 C 0.071,0.385 0.032,0.185 0,0" /></g><g
             transform="translate(530.0873,100.7251)"
             id="g94"><path
               inkscape:connector-curvature="0"
               id="path96"
               style="fill:#2b2b2a;fill-opacity:1;fill-rule:nonzero;stroke:none"
               d="m 0,0 -0.126,0.012 c 0.007,0.045 0.012,0.1 0.012,0.151 0,0.069 -0.062,0.119 -0.158,0.119 -0.057,0 -0.116,-0.036 -0.165,-0.092 -0.147,-0.167 -0.206,-0.43 -0.29,-0.857 l -0.074,-0.374 c -0.146,-0.009 -0.187,-0.013 -0.336,-0.032 0.038,0.147 0.064,0.263 0.096,0.394 l 0.086,0.359 c 0.056,0.243 0.084,0.394 0.084,0.475 0,0.095 -0.024,0.139 -0.069,0.139 -0.023,0 -0.059,-0.008 -0.097,-0.02 L -1.133,0.243 -1.144,0.359 c 0.189,0.077 0.405,0.138 0.501,0.138 0.039,0 0.062,-0.014 0.071,-0.052 0.011,-0.047 0.017,-0.102 0.021,-0.167 0.174,0.144 0.33,0.224 0.437,0.224 0.073,0 0.165,-0.04 0.255,-0.104 C 0.079,0.258 0.032,0.131 0,0" /></g><g
             transform="translate(531.433,101.0618)"
             id="g98"><path
               inkscape:connector-curvature="0"
               id="path100"
               style="fill:#2b2b2a;fill-opacity:1;fill-rule:nonzero;stroke:none"
               d="m 0,0 c -0.153,0 -0.309,-0.117 -0.44,-0.333 -0.146,-0.235 -0.25,-0.548 -0.25,-0.752 0,-0.119 0.057,-0.185 0.153,-0.185 0.144,0 0.395,0.128 0.491,0.224 0.054,0.053 0.084,0.131 0.123,0.278 0.062,0.235 0.121,0.455 0.155,0.71 C 0.147,-0.02 0.065,0 0,0 m 0.178,-1.429 c -0.068,0 -0.092,0.043 -0.127,0.233 -0.286,-0.163 -0.495,-0.237 -0.7,-0.237 -0.23,0 -0.365,0.121 -0.365,0.332 0,0.204 0.101,0.494 0.255,0.733 0.207,0.325 0.467,0.529 0.859,0.529 0.175,0 0.333,-0.031 0.5,-0.073 L 0.58,0.027 C 0.439,-0.417 0.341,-0.908 0.341,-1.074 c 0,-0.104 0.022,-0.162 0.069,-0.162 0.029,0 0.111,0.023 0.208,0.058 L 0.63,-1.298 C 0.433,-1.371 0.244,-1.429 0.178,-1.429" /></g><g
             transform="translate(533.4521,100.988)"
             id="g102"><path
               inkscape:connector-curvature="0"
               id="path104"
               style="fill:#2b2b2a;fill-opacity:1;fill-rule:nonzero;stroke:none"
               d="m 0,0 -0.32,0.007 -0.163,-0.791 c -0.041,-0.204 -0.047,-0.261 -0.047,-0.293 0,-0.053 0.028,-0.085 0.078,-0.085 0.027,0 0.086,0.015 0.178,0.043 l 0.039,0.011 0.011,-0.113 c -0.201,-0.08 -0.408,-0.135 -0.519,-0.135 -0.083,0 -0.132,0.039 -0.132,0.113 0,0.066 0.013,0.163 0.046,0.282 0.034,0.134 0.061,0.246 0.092,0.398 l 0.119,0.57 -0.204,-0.004 0.027,0.124 c 0.262,0.046 0.352,0.255 0.426,0.479 L -0.185,0.645 -0.282,0.189 0.037,0.193 0,0 Z" /></g><g
             transform="translate(534.6068,101.0685)"
             id="g106"><path
               inkscape:connector-curvature="0"
               id="path108"
               style="fill:#2b2b2a;fill-opacity:1;fill-rule:nonzero;stroke:none"
               d="m 0,0 c -0.186,0 -0.384,-0.255 -0.481,-0.629 l 0.04,0 c 0.358,0 0.629,0.19 0.629,0.436 C 0.188,-0.085 0.104,0 0,0 m -0.398,-0.771 c -0.027,0 -0.062,0 -0.112,0.004 -0.011,-0.07 -0.017,-0.128 -0.017,-0.187 0,-0.195 0.071,-0.3 0.205,-0.3 0.124,0 0.277,0.065 0.506,0.209 l 0.042,-0.132 c -0.287,-0.177 -0.501,-0.259 -0.699,-0.259 -0.238,0 -0.37,0.144 -0.37,0.401 0,0.637 0.432,1.189 0.93,1.189 0.243,0 0.387,-0.111 0.387,-0.304 0,-0.355 -0.378,-0.621 -0.872,-0.621" /></g><g
             transform="translate(536.6286,100.7251)"
             id="g110"><path
               inkscape:connector-curvature="0"
               id="path112"
               style="fill:#2b2b2a;fill-opacity:1;fill-rule:nonzero;stroke:none"
               d="m 0,0 -0.128,0.012 c 0.008,0.045 0.011,0.1 0.011,0.151 0,0.069 -0.062,0.119 -0.158,0.119 -0.059,0 -0.115,-0.036 -0.166,-0.092 -0.146,-0.167 -0.204,-0.43 -0.29,-0.857 l -0.073,-0.374 c -0.146,-0.009 -0.185,-0.013 -0.337,-0.032 0.042,0.147 0.068,0.263 0.098,0.394 l 0.085,0.359 c 0.057,0.243 0.084,0.394 0.084,0.475 0,0.095 -0.024,0.139 -0.068,0.139 -0.024,0 -0.058,-0.008 -0.095,-0.02 L -1.134,0.243 -1.147,0.359 c 0.189,0.077 0.405,0.138 0.502,0.138 0.038,0 0.061,-0.014 0.07,-0.052 0.011,-0.047 0.019,-0.102 0.022,-0.167 0.173,0.144 0.329,0.224 0.436,0.224 0.074,0 0.166,-0.04 0.255,-0.104 C 0.076,0.258 0.03,0.131 0,0" /></g><g
             transform="translate(538.1663,99.6324)"
             id="g114"><path
               inkscape:connector-curvature="0"
               id="path116"
               style="fill:#2b2b2a;fill-opacity:1;fill-rule:nonzero;stroke:none"
               d="m 0,0 c -0.078,0 -0.123,0.048 -0.123,0.117 0,0.046 0.016,0.131 0.062,0.324 l 0.038,0.162 c 0.117,0.482 0.145,0.645 0.145,0.71 0,0.058 -0.028,0.089 -0.083,0.089 -0.065,0 -0.173,-0.04 -0.288,-0.108 C -0.373,1.224 -0.467,1.144 -0.512,1.073 -0.549,1.016 -0.576,0.915 -0.622,0.711 -0.682,0.429 -0.722,0.237 -0.752,0.054 -0.903,0.043 -0.941,0.039 -1.092,0.02 c 0.078,0.29 0.135,0.528 0.192,0.796 0.059,0.261 0.082,0.385 0.082,0.455 0,0.088 -0.026,0.131 -0.085,0.131 -0.031,0 -0.096,-0.016 -0.189,-0.046 l -0.007,0.107 c 0.185,0.075 0.386,0.127 0.477,0.127 0.085,0 0.114,-0.049 0.114,-0.231 l 0,-0.031 C -0.216,1.495 0.085,1.59 0.293,1.59 0.421,1.59 0.472,1.56 0.472,1.482 0.472,1.402 0.448,1.275 0.366,0.961 0.32,0.784 0.278,0.595 0.264,0.51 0.241,0.397 0.228,0.328 0.228,0.287 c 0,-0.058 0.03,-0.089 0.085,-0.089 0.035,0 0.108,0.016 0.2,0.05 L 0.525,0.135 C 0.32,0.062 0.088,0 0,0" /></g><g
             transform="translate(539.3713,99.6368)"
             id="g118"><path
               inkscape:connector-curvature="0"
               id="path120"
               style="fill:#2b2b2a;fill-opacity:1;fill-rule:nonzero;stroke:none"
               d="m 0,0 c -0.079,0 -0.129,0.043 -0.129,0.113 0,0.034 0.012,0.096 0.033,0.181 0.049,0.204 0.118,0.482 0.157,0.629 0.053,0.201 0.077,0.339 0.077,0.394 0,0.05 -0.024,0.073 -0.064,0.073 -0.037,0 -0.071,-0.011 -0.153,-0.035 L -0.105,1.347 -0.117,1.455 C 0.096,1.537 0.305,1.586 0.407,1.586 0.466,1.586 0.488,1.568 0.488,1.521 0.488,1.475 0.47,1.351 0.401,1.08 L 0.343,0.852 C 0.245,0.478 0.224,0.347 0.224,0.286 c 0,-0.057 0.031,-0.093 0.088,-0.093 0.035,0 0.103,0.016 0.212,0.055 L 0.531,0.139 C 0.327,0.058 0.106,0 0,0 m 0.418,1.972 c -0.119,0 -0.194,0.073 -0.194,0.186 0,0.138 0.098,0.235 0.238,0.235 0.116,0 0.19,-0.069 0.19,-0.181 0,-0.139 -0.097,-0.24 -0.234,-0.24" /></g><g
             transform="translate(541.3107,100.988)"
             id="g122"><path
               inkscape:connector-curvature="0"
               id="path124"
               style="fill:#2b2b2a;fill-opacity:1;fill-rule:nonzero;stroke:none"
               d="m 0,0 -0.321,0.007 -0.162,-0.791 c -0.044,-0.204 -0.047,-0.261 -0.047,-0.293 0,-0.053 0.027,-0.085 0.078,-0.085 0.028,0 0.085,0.015 0.177,0.043 l 0.039,0.011 0.012,-0.113 c -0.2,-0.08 -0.409,-0.135 -0.521,-0.135 -0.081,0 -0.132,0.039 -0.132,0.113 0,0.066 0.018,0.163 0.048,0.282 0.034,0.134 0.061,0.246 0.092,0.398 l 0.12,0.57 -0.205,-0.004 0.027,0.124 c 0.262,0.046 0.351,0.255 0.424,0.479 L -0.184,0.645 -0.282,0.189 0.039,0.193 0,0 Z" /></g><g
             transform="translate(542.4648,101.0685)"
             id="g126"><path
               inkscape:connector-curvature="0"
               id="path128"
               style="fill:#2b2b2a;fill-opacity:1;fill-rule:nonzero;stroke:none"
               d="m 0,0 c -0.186,0 -0.383,-0.255 -0.479,-0.629 l 0.038,0 c 0.36,0 0.629,0.19 0.629,0.436 C 0.188,-0.085 0.103,0 0,0 m -0.397,-0.771 c -0.029,0 -0.064,0 -0.113,0.004 -0.013,-0.07 -0.016,-0.128 -0.016,-0.187 0,-0.195 0.07,-0.3 0.206,-0.3 0.123,0 0.277,0.065 0.505,0.209 l 0.042,-0.132 c -0.285,-0.177 -0.501,-0.259 -0.699,-0.259 -0.238,0 -0.368,0.144 -0.368,0.401 0,0.637 0.431,1.189 0.928,1.189 0.243,0 0.386,-0.111 0.386,-0.304 0,-0.355 -0.378,-0.621 -0.871,-0.621 M 0.03,0.394 -0.094,0.495 0.378,1.027 0.725,0.943 0.03,0.394 Z" /></g><g
             transform="translate(524.4017,100.3511)"
             id="g130"><path
               inkscape:connector-curvature="0"
               id="path132"
               style="fill:#2b2b2a;fill-opacity:1;fill-rule:nonzero;stroke:none"
               d="M 0,0 C 0.259,0 0.469,0.21 0.469,0.469 0.469,0.729 0.259,0.937 0,0.937 -0.258,0.937 -0.469,0.729 -0.469,0.469 -0.469,0.21 -0.258,0 0,0" /></g><path
             inkscape:connector-curvature="0"
             id="path134"
             style="fill:#ffffff;fill-opacity:1;fill-rule:nonzero;stroke:none"
             d="m 542.761,104.486 -48.179,0 0,16.171 48.179,0 0,-16.171 z" /><g
             transform="translate(495.8168,95.9103)"
             id="g136"><path
               inkscape:connector-curvature="0"
               id="path138"
               style="fill:#2b2b2a;fill-opacity:1;fill-rule:nonzero;stroke:none"
               d="m 0,0 c -0.095,0 -0.182,-0.015 -0.287,-0.039 0,-0.283 -0.004,-0.797 -0.004,-1.195 0.051,-0.01 0.148,-0.014 0.211,-0.014 0.392,0 0.657,0.245 0.657,0.619 C 0.577,-0.265 0.332,0 0,0 m 1.234,-3.005 c -0.178,0 -0.278,0.024 -0.378,0.091 -0.16,0.106 -0.327,0.394 -0.423,0.556 -0.164,0.284 -0.346,0.587 -0.519,0.841 -0.029,-0.005 -0.052,-0.005 -0.072,-0.005 -0.047,0 -0.086,0.005 -0.133,0.005 l 0,-0.254 c 0,-0.131 0.004,-0.259 0.004,-0.389 0.004,-0.259 0.009,-0.37 0.047,-0.471 0.049,-0.124 0.135,-0.187 0.294,-0.201 l 0,-0.134 -0.11,0.004 c -0.126,0.005 -0.299,0 -0.524,0 -0.222,0 -0.392,0.005 -0.518,0 l -0.115,-0.004 0,0.134 c 0.12,0.009 0.177,0.034 0.236,0.096 0.052,0.063 0.085,0.148 0.095,0.259 0.015,0.143 0.019,0.231 0.019,0.706 l 0,0.806 c 0,0.585 -0.019,0.73 -0.052,0.863 -0.034,0.129 -0.135,0.184 -0.298,0.201 l 0,0.135 c 0.096,-0.009 0.192,-0.005 0.288,-0.005 0.25,0 0.327,0 0.624,0.015 0.259,0.01 0.408,0.014 0.523,0.014 0.326,0 0.523,-0.047 0.686,-0.163 0.183,-0.13 0.302,-0.379 0.302,-0.628 0,-0.395 -0.259,-0.715 -0.7,-0.879 0.182,-0.23 0.326,-0.459 0.494,-0.724 0.153,-0.245 0.307,-0.456 0.426,-0.576 0.067,-0.072 0.112,-0.096 0.202,-0.12 l 0,-0.134 C 1.508,-2.995 1.383,-3.005 1.234,-3.005" /></g><g
             transform="translate(499.5134,93.0029)"
             id="g140"><path
               inkscape:connector-curvature="0"
               id="path142"
               style="fill:#2b2b2a;fill-opacity:1;fill-rule:nonzero;stroke:none"
               d="m 0,0 c -0.037,-0.059 -0.076,-0.071 -0.295,-0.071 -0.133,0 -0.265,0.008 -0.4,0.012 -0.189,0.003 -0.38,0.011 -0.57,0.011 -0.191,0 -0.381,-0.003 -0.571,-0.011 l 0,0.111 c 0.178,0.015 0.257,0.119 0.273,0.293 0.012,0.12 0.012,0.247 0.012,0.452 l 0,1.123 c 0,0.209 -0.012,0.304 -0.043,0.388 -0.037,0.103 -0.107,0.15 -0.242,0.167 l 0,0.11 1.855,0 C 0.019,2.47 0.015,2.351 0.015,2.236 0.015,2.141 0.011,2.05 0.019,1.955 l -0.143,0 C -0.151,2.261 -0.283,2.343 -0.754,2.343 -0.841,2.343 -0.956,2.34 -1.051,2.335 -1.059,2.181 -1.063,2.129 -1.063,1.9 l 0,-0.46 c 0.06,-0.005 0.107,-0.005 0.179,-0.005 0.411,0 0.538,0.06 0.562,0.275 l 0.143,0 C -0.188,1.647 -0.188,1.514 -0.188,1.317 c 0,-0.203 0.006,-0.322 0.009,-0.384 l -0.143,0 c -0.012,0.225 -0.118,0.281 -0.527,0.281 -0.072,0 -0.143,-0.004 -0.214,-0.004 0,-0.25 0.004,-0.5 0.004,-0.75 0,-0.167 0.028,-0.221 0.122,-0.246 0.061,-0.015 0.151,-0.02 0.274,-0.02 0.428,0 0.579,0.096 0.671,0.421 L 0.161,0.584 C 0.107,0.306 0.043,0.076 0,0 m -0.884,2.844 -0.187,0.11 0.392,0.579 0.456,-0.084 -0.661,-0.605 z" /></g><g
             transform="translate(501.1656,94.1223)"
             id="g144"><path
               inkscape:connector-curvature="0"
               id="path146"
               style="fill:#2b2b2a;fill-opacity:1;fill-rule:nonzero;stroke:none"
               d="m 0,0 c -0.04,0 -0.059,0 -0.112,0.003 l -0.087,0.202 c 0.374,0.024 0.58,0.206 0.58,0.508 0,0.316 -0.219,0.543 -0.52,0.543 -0.048,0 -0.088,-0.003 -0.151,-0.017 0,-0.245 -0.007,-0.491 -0.007,-0.737 l 0,-0.694 c 0,-0.519 0.004,-0.606 0.043,-0.709 0.036,-0.102 0.107,-0.155 0.242,-0.166 l 0,-0.111 -0.095,0.003 c -0.103,0.005 -0.247,0.005 -0.436,0.005 -0.187,0 -0.333,0 -0.433,-0.005 l -0.094,-0.003 0,0.111 c 0.178,0.015 0.258,0.119 0.273,0.293 0.012,0.119 0.012,0.19 0.012,0.582 l 0,0.992 c 0,0.21 -0.012,0.305 -0.044,0.389 -0.036,0.102 -0.106,0.15 -0.241,0.166 l 0,0.111 c 0.048,-0.004 0.011,-0.004 0.183,-0.004 0.067,0 0.162,0 0.289,0.004 0.201,0.008 0.404,0.02 0.606,0.02 0.563,0 0.899,-0.277 0.899,-0.738 C 0.907,0.316 0.523,0 0,0" /></g><g
             transform="translate(504.7668,95.3894)"
             id="g148"><path
               inkscape:connector-curvature="0"
               id="path150"
               style="fill:#2b2b2a;fill-opacity:1;fill-rule:nonzero;stroke:none"
               d="m 0,0 c -0.043,-0.059 -0.063,-0.138 -0.07,-0.297 -0.009,-0.17 -0.012,-0.301 -0.012,-0.548 0,-0.09 0.003,-0.364 0.003,-0.638 0,-0.276 -0.043,-0.443 -0.158,-0.61 -0.182,-0.266 -0.484,-0.401 -0.88,-0.401 -0.249,0 -0.441,0.049 -0.618,0.167 -0.278,0.179 -0.385,0.413 -0.385,0.833 0,0.428 0.008,0.614 0.008,0.755 0,0.2 0.013,0.41 -0.023,0.61 -0.025,0.141 -0.1,0.2 -0.267,0.217 l 0,0.11 0.091,-0.003 C -2.207,0.19 -2.06,0.19 -1.87,0.19 c 0.191,0 0.336,0 0.44,0.005 l 0.091,0.003 0,-0.11 C -1.462,0.071 -1.522,0.04 -1.56,-0.028 -1.597,-0.086 -1.613,-0.167 -1.617,-0.341 -1.624,-0.59 -1.628,-0.836 -1.628,-1.086 c 0,-0.681 0.015,-0.811 0.138,-0.955 0.096,-0.111 0.258,-0.186 0.447,-0.186 0.266,0 0.524,0.134 0.604,0.401 0.051,0.169 0.059,0.293 0.059,0.74 l 0,0.393 c 0,0.452 -0.012,0.59 -0.056,0.658 -0.043,0.071 -0.102,0.111 -0.205,0.123 l 0,0.11 C -0.483,0.19 -0.428,0.19 -0.229,0.19 c 0.202,0 0.257,0 0.416,0.008 l 0,-0.11 C 0.1,0.076 0.044,0.052 0,0" /></g><g
             transform="translate(506.3528,94.2755)"
             id="g152"><path
               inkscape:connector-curvature="0"
               id="path154"
               style="fill:#2b2b2a;fill-opacity:1;fill-rule:nonzero;stroke:none"
               d="m 0,0 c -0.069,0 -0.139,-0.004 -0.242,-0.011 -0.004,-0.108 -0.004,-0.128 -0.004,-0.31 l 0,-0.233 c 0,-0.223 0.008,-0.341 0.035,-0.421 0.033,-0.099 0.127,-0.146 0.294,-0.146 0.337,0 0.527,0.186 0.527,0.519 C 0.61,-0.234 0.372,0 0,0 m -0.012,1.106 c -0.072,0 -0.143,-0.007 -0.214,-0.007 -0.005,-0.258 -0.012,-0.702 -0.016,-0.868 0.043,-0.005 0.099,-0.009 0.173,-0.009 0.389,0 0.612,0.163 0.612,0.448 0,0.274 -0.207,0.436 -0.555,0.436 m 0.863,-2.251 c -0.185,-0.143 -0.395,-0.19 -0.8,-0.19 -0.214,0 -0.433,0.015 -0.645,0.015 -0.088,0 -0.25,0 -0.362,-0.008 l -0.047,-0.003 0,0.111 c 0.187,0.015 0.257,0.11 0.274,0.292 0.012,0.12 0.015,0.191 0.015,0.582 l 0,0.751 c 0,0.368 -0.003,0.528 -0.044,0.63 -0.039,0.103 -0.111,0.15 -0.245,0.167 l 0,0.11 c 0.182,-0.008 0.289,-0.008 0.543,-0.008 0.229,0 0.574,0.013 0.803,0.013 0.366,0 0.699,-0.174 0.699,-0.587 0,-0.304 -0.191,-0.511 -0.567,-0.606 0.42,-0.084 0.642,-0.326 0.642,-0.719 0,-0.237 -0.087,-0.415 -0.266,-0.55" /></g><g
             transform="translate(509.7083,92.9985)"
             id="g156"><path
               inkscape:connector-curvature="0"
               id="path158"
               style="fill:#2b2b2a;fill-opacity:1;fill-rule:nonzero;stroke:none"
               d="m 0,0 c -0.035,-0.054 -0.083,-0.066 -0.282,-0.066 -0.098,0 -0.202,0.003 -0.299,0.007 -0.246,0.008 -0.469,0.016 -0.739,0.016 -0.202,0 -0.336,-0.003 -0.464,-0.011 l 0,0.111 c 0.1,0.007 0.152,0.027 0.195,0.077 0.071,0.085 0.091,0.187 0.091,0.478 0,0.198 0.003,0.357 0.003,0.563 l 0,0.424 c 0,0.534 -0.003,0.605 -0.043,0.713 -0.035,0.103 -0.11,0.15 -0.246,0.167 l 0,0.11 0.1,-0.003 c 0.107,-0.005 0.253,-0.005 0.451,-0.005 0.194,0 0.346,0 0.448,0.005 l 0.1,0.003 0,-0.11 c -0.202,0 -0.29,-0.107 -0.314,-0.298 C -1.006,2.113 -1.01,2.05 -1.01,1.599 l 0,-0.662 c 0,-0.551 0.004,-0.619 0.055,-0.675 0.043,-0.043 0.128,-0.063 0.298,-0.063 0.218,0 0.336,0.024 0.436,0.079 0.111,0.06 0.193,0.179 0.233,0.346 L 0.163,0.584 C 0.119,0.353 0.044,0.069 0,0" /></g><g
             transform="translate(511.0869,92.9476)"
             id="g160"><path
               inkscape:connector-curvature="0"
               id="path162"
               style="fill:#2b2b2a;fill-opacity:1;fill-rule:nonzero;stroke:none"
               d="m 0,0 c -0.099,0.005 -0.246,0.005 -0.431,0.005 -0.192,0 -0.334,0 -0.436,-0.005 l -0.096,-0.003 0,0.11 c 0.187,0.015 0.259,0.111 0.274,0.294 0.013,0.119 0.015,0.189 0.015,0.581 l 0,0.668 c 0,0.103 -0.002,0.21 -0.002,0.325 0,0.209 -0.01,0.304 -0.042,0.388 -0.036,0.103 -0.11,0.15 -0.245,0.167 l 0,0.11 0.096,-0.003 c 0.102,-0.005 0.244,-0.005 0.436,-0.005 0.185,0 0.332,0 0.431,0.005 l 0.095,0.003 0,-0.11 C -0.074,2.518 -0.161,2.409 -0.178,2.232 -0.19,2.117 -0.19,2.006 -0.19,1.65 l 0,-0.668 c 0,-0.519 0.004,-0.606 0.044,-0.708 0.034,-0.103 0.106,-0.155 0.241,-0.167 l 0,-0.11 L 0,0 Z" /></g><g
             transform="translate(512.9225,95.3659)"
             id="g164"><path
               inkscape:connector-curvature="0"
               id="path166"
               style="fill:#2b2b2a;fill-opacity:1;fill-rule:nonzero;stroke:none"
               d="m 0,0 c -0.484,0 -0.829,-0.403 -0.829,-0.971 0,-0.69 0.407,-1.233 0.927,-1.233 0.488,0 0.832,0.412 0.832,0.988 C 0.93,-0.535 0.522,0 0,0 m 1.87,-3.135 c -0.308,0 -0.637,0.094 -0.95,0.269 -0.179,0.099 -0.43,0.27 -0.611,0.421 -0.134,-0.021 -0.187,-0.025 -0.314,-0.025 -0.801,0 -1.332,0.524 -1.332,1.312 0,0.846 0.574,1.428 1.415,1.428 0.816,0 1.36,-0.524 1.36,-1.309 0,-0.558 -0.286,-1.053 -0.736,-1.284 0.141,-0.071 0.284,-0.151 0.423,-0.233 0.405,-0.246 0.682,-0.35 0.943,-0.35 0.163,0 0.297,0.037 0.456,0.116 L 2.576,-2.93 C 2.381,-3.065 2.14,-3.135 1.87,-3.135" /></g><g
             transform="translate(495.9623,99.7298)"
             id="g168"><path
               inkscape:connector-curvature="0"
               id="path170"
               style="fill:#2b2b2a;fill-opacity:1;fill-rule:nonzero;stroke:none"
               d="m 0,0 c -0.035,-0.046 -0.093,-0.062 -0.232,-0.062 -0.19,0 -0.374,0.012 -0.563,0.016 -0.163,0.003 -0.285,0.007 -0.37,0.007 -0.117,0 -0.398,-0.004 -0.479,-0.007 l -0.055,-0.004 0.016,0.081 c 0.117,0.011 0.186,0.046 0.239,0.119 0.062,0.077 0.101,0.185 0.155,0.402 0.049,0.212 0.073,0.34 0.154,0.737 l 0.062,0.305 c 0.062,0.309 0.085,0.489 0.085,0.586 0,0.17 -0.062,0.239 -0.228,0.259 l 0.015,0.085 c 0.023,-0.003 0.043,-0.003 0.054,-0.003 0.144,0 0.282,-0.005 0.425,-0.005 0.223,0 0.37,0.005 0.436,0.005 0.011,0 0.034,0 0.062,0.003 L -0.239,2.439 C -0.359,2.432 -0.425,2.401 -0.482,2.324 -0.58,2.201 -0.633,2.034 -0.776,1.289 L -0.827,1.031 C -0.888,0.714 -0.911,0.606 -0.93,0.463 -0.938,0.417 -0.942,0.366 -0.942,0.343 c 0,-0.15 0.077,-0.197 0.324,-0.197 0.436,0 0.598,0.09 0.74,0.406 L 0.228,0.513 C 0.135,0.258 0.046,0.062 0,0" /></g><g
             transform="translate(496.6877,99.6368)"
             id="g172"><path
               inkscape:connector-curvature="0"
               id="path174"
               style="fill:#2b2b2a;fill-opacity:1;fill-rule:nonzero;stroke:none"
               d="m 0,0 c -0.078,0 -0.128,0.043 -0.128,0.113 0,0.034 0.012,0.096 0.031,0.181 0.051,0.204 0.119,0.482 0.159,0.629 0.052,0.201 0.077,0.339 0.077,0.394 0,0.05 -0.025,0.073 -0.066,0.073 -0.034,0 -0.07,-0.011 -0.151,-0.035 L -0.105,1.347 -0.116,1.455 C 0.096,1.537 0.303,1.586 0.409,1.586 0.466,1.586 0.49,1.568 0.49,1.521 0.49,1.475 0.47,1.351 0.401,1.08 L 0.343,0.852 C 0.246,0.478 0.224,0.347 0.224,0.286 c 0,-0.057 0.03,-0.093 0.088,-0.093 0.034,0 0.104,0.016 0.212,0.055 L 0.532,0.139 C 0.327,0.058 0.107,0 0,0 m 0.42,1.972 c -0.12,0 -0.196,0.073 -0.196,0.186 0,0.138 0.1,0.235 0.238,0.235 0.116,0 0.189,-0.069 0.189,-0.181 0,-0.139 -0.096,-0.24 -0.231,-0.24" /></g><g
             transform="translate(498.8091,101.0574)"
             id="g176"><path
               inkscape:connector-curvature="0"
               id="path178"
               style="fill:#2b2b2a;fill-opacity:1;fill-rule:nonzero;stroke:none"
               d="m 0,0 c -0.07,0 -0.155,-0.027 -0.263,-0.086 -0.111,-0.057 -0.193,-0.118 -0.234,-0.177 -0.051,-0.07 -0.093,-0.189 -0.152,-0.444 -0.058,-0.239 -0.084,-0.39 -0.084,-0.443 0,-0.073 0.084,-0.116 0.238,-0.116 0.16,0 0.294,0.074 0.394,0.215 C 0.054,-0.83 0.17,-0.478 0.17,-0.227 0.17,-0.082 0.112,0 0,0 m 0.005,-1.24 c -0.152,-0.131 -0.33,-0.185 -0.603,-0.185 -0.302,0 -0.482,0.051 -0.482,0.128 0,0.031 0.003,0.07 0.041,0.232 l 0.201,0.876 c 0.065,0.281 0.116,0.505 0.185,0.821 0.039,0.186 0.055,0.286 0.055,0.337 0,0.045 -0.024,0.073 -0.067,0.073 -0.026,0 -0.111,-0.02 -0.17,-0.037 l -0.003,0.111 0.046,0.014 c 0.21,0.069 0.382,0.109 0.464,0.109 0.05,0 0.08,-0.024 0.08,-0.066 0,-0.043 -0.018,-0.138 -0.084,-0.425 l -0.115,-0.51 c -0.04,-0.165 -0.05,-0.227 -0.062,-0.28 0.243,0.142 0.455,0.207 0.647,0.207 0.236,0 0.352,-0.12 0.352,-0.363 0,-0.358 -0.204,-0.797 -0.485,-1.042" /></g><g
             transform="translate(500.5376,101.0685)"
             id="g180"><path
               inkscape:connector-curvature="0"
               id="path182"
               style="fill:#2b2b2a;fill-opacity:1;fill-rule:nonzero;stroke:none"
               d="m 0,0 c -0.186,0 -0.382,-0.255 -0.478,-0.629 l 0.039,0 c 0.358,0 0.628,0.19 0.628,0.436 C 0.189,-0.085 0.105,0 0,0 m -0.398,-0.771 c -0.026,0 -0.062,0 -0.111,0.004 -0.012,-0.07 -0.015,-0.128 -0.015,-0.187 0,-0.195 0.069,-0.3 0.204,-0.3 0.123,0 0.278,0.065 0.505,0.209 l 0.042,-0.132 c -0.285,-0.177 -0.501,-0.259 -0.697,-0.259 -0.24,0 -0.371,0.144 -0.371,0.401 0,0.637 0.431,1.189 0.929,1.189 0.244,0 0.386,-0.111 0.386,-0.304 0,-0.355 -0.377,-0.621 -0.872,-0.621" /></g><g
             transform="translate(502.5594,100.7251)"
             id="g184"><path
               inkscape:connector-curvature="0"
               id="path186"
               style="fill:#2b2b2a;fill-opacity:1;fill-rule:nonzero;stroke:none"
               d="m 0,0 -0.127,0.012 c 0.008,0.045 0.011,0.1 0.011,0.151 0,0.069 -0.062,0.119 -0.158,0.119 -0.057,0 -0.115,-0.036 -0.165,-0.092 -0.147,-0.167 -0.206,-0.43 -0.291,-0.857 l -0.072,-0.374 c -0.147,-0.009 -0.186,-0.013 -0.336,-0.032 0.038,0.147 0.066,0.263 0.096,0.394 l 0.085,0.359 c 0.058,0.243 0.086,0.394 0.086,0.475 0,0.095 -0.024,0.139 -0.07,0.139 -0.022,0 -0.058,-0.008 -0.096,-0.02 L -1.135,0.243 -1.146,0.359 c 0.189,0.077 0.405,0.138 0.501,0.138 0.04,0 0.063,-0.014 0.07,-0.052 0.012,-0.047 0.02,-0.102 0.023,-0.167 0.174,0.144 0.328,0.224 0.436,0.224 0.074,0 0.166,-0.04 0.255,-0.104 C 0.078,0.258 0.031,0.131 0,0" /></g><g
             transform="translate(503.8674,100.988)"
             id="g188"><path
               inkscape:connector-curvature="0"
               id="path190"
               style="fill:#2b2b2a;fill-opacity:1;fill-rule:nonzero;stroke:none"
               d="m 0,0 -0.32,0.007 -0.161,-0.791 c -0.043,-0.204 -0.046,-0.261 -0.046,-0.293 0,-0.053 0.026,-0.085 0.075,-0.085 0.028,0 0.085,0.015 0.178,0.043 l 0.039,0.011 0.012,-0.113 c -0.201,-0.08 -0.41,-0.135 -0.521,-0.135 -0.082,0 -0.131,0.039 -0.131,0.113 0,0.066 0.014,0.163 0.046,0.282 0.035,0.134 0.061,0.246 0.093,0.398 l 0.119,0.57 -0.205,-0.004 0.028,0.124 c 0.263,0.046 0.35,0.255 0.424,0.479 L -0.185,0.645 -0.282,0.189 0.039,0.193 0,0 Z" /></g><g
             transform="translate(505.0218,101.0685)"
             id="g192"><path
               inkscape:connector-curvature="0"
               id="path194"
               style="fill:#2b2b2a;fill-opacity:1;fill-rule:nonzero;stroke:none"
               d="m 0,0 c -0.186,0 -0.382,-0.255 -0.478,-0.629 l 0.038,0 c 0.358,0 0.629,0.19 0.629,0.436 C 0.189,-0.085 0.104,0 0,0 m -0.398,-0.771 c -0.027,0 -0.062,0 -0.112,0.004 -0.011,-0.07 -0.014,-0.128 -0.014,-0.187 0,-0.195 0.068,-0.3 0.203,-0.3 0.123,0 0.278,0.065 0.505,0.209 l 0.043,-0.132 c -0.285,-0.177 -0.501,-0.259 -0.698,-0.259 -0.24,0 -0.371,0.144 -0.371,0.401 0,0.637 0.432,1.189 0.93,1.189 0.244,0 0.386,-0.111 0.386,-0.304 0,-0.355 -0.378,-0.621 -0.872,-0.621 M 0.031,0.394 -0.093,0.495 0.377,1.027 0.725,0.943 0.031,0.394 Z" /></g><g
             transform="translate(512.4157,101.6898)"
             id="g196"><path
               inkscape:connector-curvature="0"
               id="path198"
               style="fill:#2b2b2a;fill-opacity:1;fill-rule:nonzero;stroke:none"
               d="m 0,0 -0.111,0 c 0.003,0.043 0.007,0.058 0.007,0.085 0,0.213 -0.139,0.287 -0.524,0.287 -0.127,0 -0.251,0 -0.377,-0.012 -0.082,-0.321 -0.137,-0.598 -0.202,-0.943 l 0.143,0 c 0.246,0 0.351,0.005 0.44,0.02 0.142,0.026 0.227,0.111 0.27,0.267 l 0.104,0 c -0.054,-0.229 -0.119,-0.553 -0.147,-0.749 l -0.104,0 c 0.005,0.026 0.008,0.05 0.008,0.065 0,0.166 -0.105,0.221 -0.422,0.221 -0.187,0 -0.257,-0.005 -0.328,-0.009 -0.018,-0.096 0,-0.012 -0.087,-0.456 -0.043,-0.215 -0.059,-0.351 -0.059,-0.42 0,-0.135 0.071,-0.17 0.328,-0.17 0.487,0 0.637,0.078 0.787,0.409 l 0.098,-0.039 c -0.087,-0.253 -0.178,-0.458 -0.232,-0.524 -0.039,-0.042 -0.088,-0.054 -0.25,-0.054 -0.136,0 -0.275,0.003 -0.41,0.008 -0.178,0.004 -0.359,0.008 -0.537,0.008 -0.181,0 -0.359,-0.004 -0.541,-0.004 l 0.016,0.081 c 0.116,0.011 0.187,0.046 0.239,0.119 0.062,0.077 0.102,0.186 0.155,0.402 0.05,0.216 0.066,0.304 0.154,0.737 l 0.062,0.304 c 0.062,0.302 0.085,0.491 0.085,0.587 0,0.17 -0.061,0.24 -0.227,0.259 l 0.015,0.085 1.755,0 C 0.066,0.39 0.027,0.182 0,0 m -0.733,0.823 -0.123,0.1 0.471,0.533 0.351,-0.085 -0.699,-0.548 z" /></g><g
             transform="translate(513.6442,99.5132)"
             id="g200"><path
               inkscape:connector-curvature="0"
               id="path202"
               style="fill:#2b2b2a;fill-opacity:1;fill-rule:nonzero;stroke:none"
               d="m 0,0 c -0.133,0.05 -0.289,0.105 -0.453,0.151 -0.265,-0.066 -0.451,-0.262 -0.451,-0.487 0,-0.208 0.179,-0.347 0.456,-0.347 0.336,0 0.643,0.228 0.643,0.474 C 0.195,-0.116 0.138,-0.053 0,0 m -0.058,1.563 c -0.209,0 -0.378,-0.22 -0.378,-0.483 0,-0.18 0.102,-0.304 0.254,-0.304 0.205,0 0.371,0.212 0.371,0.474 0,0.194 -0.097,0.313 -0.247,0.313 M 0.678,1.478 0.416,1.482 C 0.461,1.402 0.478,1.34 0.478,1.25 c 0,-0.355 -0.297,-0.628 -0.682,-0.628 -0.074,0 -0.13,0.007 -0.209,0.029 C -0.51,0.595 -0.541,0.567 -0.541,0.533 -0.541,0.49 -0.499,0.47 -0.328,0.418 L -0.02,0.321 c 0.31,-0.097 0.459,-0.19 0.459,-0.413 0,-0.41 -0.404,-0.73 -0.922,-0.73 -0.425,0 -0.684,0.2 -0.684,0.528 0,0.302 0.194,0.445 0.51,0.526 -0.193,0.069 -0.235,0.101 -0.235,0.166 0,0.085 0.112,0.19 0.344,0.316 -0.121,0.085 -0.177,0.198 -0.177,0.352 0,0.366 0.292,0.644 0.678,0.644 0.099,0 0.174,-0.012 0.259,-0.042 l 0.51,0 -0.044,-0.19 z" /></g><g
             transform="translate(508.0012,100.3511)"
             id="g204"><path
               inkscape:connector-curvature="0"
               id="path206"
               style="fill:#2b2b2a;fill-opacity:1;fill-rule:nonzero;stroke:none"
               d="M 0,0 C 0.259,0 0.468,0.21 0.468,0.469 0.468,0.729 0.259,0.937 0,0.937 -0.258,0.937 -0.468,0.729 -0.468,0.469 -0.468,0.21 -0.258,0 0,0" /></g><path
             inkscape:connector-curvature="0"
             id="path208"
             style="fill:#2b2b2a;fill-opacity:1;fill-rule:nonzero;stroke:none"
             d="m 494.516,97.84 48.131,0 0,0.182 -48.131,0 0,-0.182 z" /></g></g><g
         id="g210"><g
           clip-path="url(#clipPath214)"
           id="g212"><g
             transform="translate(494.4593,104.3908)"
             id="g218"><path
               inkscape:connector-curvature="0"
               id="path220"
               style="fill:#264896;fill-opacity:1;fill-rule:nonzero;stroke:none"
               d="m 0,0 c 0.074,4.011 0,7.985 0.111,11.997 0.037,1.436 -0.037,2.872 -0.037,4.306 0.993,0.185 1.988,0.074 2.981,0.038 6.365,0 12.695,0.036 19.06,0 -0.44,-0.221 -0.956,-0.405 -1.287,-0.81 -0.294,-0.368 -0.588,-0.737 -0.7,-1.178 -0.478,-0.295 -0.772,-0.736 -1.03,-1.178 -0.332,-0.626 -0.809,-1.178 -0.735,-1.876 0.073,-0.589 0.22,-1.141 0.331,-1.767 0.036,-0.221 0.072,-0.405 0.145,-0.626 0.076,-0.221 0,-0.478 0.112,-0.662 0.074,-0.111 0.038,-0.259 0.183,-0.331 l 0,-0.148 c 0.038,-0.036 0.038,-0.073 0.113,-0.073 l 0,-0.148 C 19.541,7.176 19.908,6.845 20.092,6.44 20.166,6.219 19.723,6.33 19.541,6.404 c -0.369,0.183 -0.59,0.478 -0.883,0.735 0,0 -0.037,-0.036 -0.037,-0.073 0.145,-0.257 0.698,-0.589 0.404,-0.773 -0.148,-0.074 -0.331,0.111 -0.479,-0.037 -0.036,-0.074 0,-0.147 0,-0.221 -0.219,0.147 -0.44,0.074 -0.662,0.147 -0.146,0.037 -0.185,0.332 -0.368,0.332 -0.479,0.109 -0.92,0.221 -1.398,0.257 -0.663,0.074 -1.289,0.184 -1.951,0.074 -0.589,-0.036 -1.03,-0.479 -1.398,-0.92 l 0,-0.111 c 0.257,-0.036 0.368,0.185 0.589,0.259 0.368,0.073 0.699,0.22 1.068,0.293 0.551,0.111 1.066,0.257 1.581,0.221 0.111,0 0.259,0.036 0.368,0 C 15.713,6.623 15.124,6.404 14.499,6.219 14.063,6.091 13.616,6.073 13.21,5.851 c 0.957,0.037 1.914,-0.11 2.833,-0.404 0.332,-0.111 0.627,-0.259 0.921,-0.443 0.149,-0.11 0.221,-0.221 0.368,-0.293 0.184,-0.11 0.443,-0.11 0.625,-0.038 l 0.185,0 c 0.552,0.148 1.14,0.295 1.508,0.7 0,-0.037 0.036,-0.037 0.073,-0.037 -0.108,-0.294 -0.108,-0.625 -0.331,-0.883 0,-0.037 -0.036,-0.111 0.037,-0.148 l 0.074,0 c -0.036,0 -0.074,0 -0.074,-0.036 0,-0.074 0.112,0 0.148,-0.074 -0.185,-0.036 -0.369,-0.074 -0.479,-0.22 0,-0.038 0.074,-0.038 0.11,-0.038 -0.074,-0.073 -0.183,-0.037 -0.219,-0.11 0,0 0.036,-0.037 0.073,-0.037 -0.037,0 -0.073,0 -0.073,-0.036 l 0,-0.111 c -0.112,0 -0.15,-0.074 -0.223,-0.111 0.149,-0.11 0.259,0 0.406,0 -0.406,-0.146 -0.736,-0.368 -1.14,-0.478 -0.075,0 0,-0.111 -0.075,-0.111 0.111,-0.073 0.185,0.038 0.294,0.038 -0.513,-0.295 -1.03,-0.551 -1.581,-0.884 0,0 -0.074,-0.073 -0.074,-0.147 l -0.147,0 c -0.074,-0.036 -0.037,-0.148 -0.11,-0.22 0.184,-0.111 0.404,0.146 0.515,0 0.036,0 -0.074,-0.037 -0.148,-0.037 -0.036,0 -0.036,-0.074 -0.074,-0.074 l -0.109,0 C 16.449,1.545 16.375,1.508 16.375,1.398 c -0.073,0 -0.146,0 -0.183,-0.073 0.808,0.11 1.655,0.036 2.429,0.441 0.587,0.295 1.14,0.699 1.619,1.215 0,0 0.036,-0.038 0.036,-0.074 C 20.166,2.539 19.944,2.281 19.65,2.061 19.429,1.95 19.282,1.766 19.098,1.693 18.989,1.619 18.877,1.545 18.766,1.471 17.406,0.993 15.787,1.214 14.609,0.293 c 0,0.037 -0.038,0.037 -0.074,0.037 -0.073,-0.073 -0.183,-0.11 -0.22,-0.183 0,-0.073 0.111,-0.037 0.147,-0.037 0.221,0.147 0.44,0.258 0.699,0.33 C 14.866,0.293 14.571,0.074 14.278,0 c -0.626,-0.11 -1.214,-0.074 -1.84,0 0.368,0.22 0.736,0.478 1.14,0.699 -0.109,0.073 -0.22,0.073 -0.33,0.073 -0.184,-0.037 -0.405,0.073 -0.589,0 C 12.107,0.516 11.371,0.588 11.077,0" /></g><g
             transform="translate(506.8972,108.8443)"
             id="g222"><path
               inkscape:connector-curvature="0"
               id="path224"
               style="fill:#ffffff;fill-opacity:1;fill-rule:nonzero;stroke:none"
               d="m 0,0 c -0.113,-0.029 -0.221,-0.112 -0.183,-0.184 0.109,-0.149 0.33,0.036 0.514,0.036 -0.221,-0.074 -0.478,-0.036 -0.662,-0.221 0.148,-0.11 0.295,-0.036 0.441,-0.036 0,-0.074 0.074,-0.074 0.11,-0.112 -0.183,-0.072 -0.329,-0.219 -0.367,-0.331 -0.074,-0.183 -0.258,-0.257 -0.369,-0.405 l 0,-0.109 c -0.367,-0.332 -0.772,-0.552 -1.066,-0.957 0.037,0 0.037,-0.037 0.037,-0.074 -0.074,-0.11 -0.221,-0.146 -0.257,-0.258 0,-0.037 0,-0.073 0.036,-0.073 0.442,0.147 0.772,0.479 1.178,0.625 0.293,0.075 0.514,0.258 0.772,0.331 0.184,0.037 0.404,0.111 0.588,0.148 0,-0.037 0,-0.074 0.038,-0.074 l 0.294,0 C 1.067,-1.768 0.921,-1.731 0.957,-1.768 c 0.11,-0.109 0.331,-0.073 0.478,0 0.111,0.074 0.221,0.074 0.368,0.074 0.037,0 0.037,0.074 0.037,0.11 0.11,-0.036 0.184,-0.036 0.293,-0.036 0.885,0.184 1.731,0.367 2.541,0.772 -0.957,0.736 -2.172,0.995 -3.312,1.326 0.111,0 0.22,-0.11 0.331,0 C 1.51,0.625 1.288,0.551 1.104,0.661 1.14,0.661 1.214,0.625 1.252,0.699 0.957,0.845 0.662,0.845 0.368,0.92 0.552,0.956 0.662,1.104 0.662,1.287 0.662,1.324 0.588,1.324 0.552,1.324 0.11,1.104 -0.183,0.699 -0.368,0.22 -0.109,0.073 0.184,0.183 0.441,0.147 0.331,0.036 0.147,0.036 0,0" /></g><g
             transform="translate(505.3884,110.2788)"
             id="g226"><path
               inkscape:connector-curvature="0"
               id="path228"
               style="fill:#ffffff;fill-opacity:1;fill-rule:nonzero;stroke:none"
               d="m 0,0 c -0.376,-0.398 -0.773,-0.773 -1.251,-1.03 -0.332,-0.663 -0.699,-1.252 -1.177,-1.877 0,-0.038 0.036,-0.074 0.036,-0.074 0.883,0.993 1.693,1.84 2.833,2.54 0.074,0.036 -0.109,-0.111 0.038,-0.074 0.478,0.11 0.625,0.588 0.847,0.957 0.293,0.479 0.809,0.662 1.176,1.067 0,-0.036 0,-0.074 -0.036,-0.11 C 2.502,1.361 2.539,1.361 2.576,1.361 2.723,1.473 2.907,1.435 3.019,1.583 2.723,1.692 2.355,1.73 2.061,1.619 1.288,1.251 0.626,0.662 0,0" /></g><g
             transform="translate(505.9411,109.5791)"
             id="g230"><path
               inkscape:connector-curvature="0"
               id="path232"
               style="fill:#ffffff;fill-opacity:1;fill-rule:nonzero;stroke:none"
               d="m 0,0 c 0.032,0.066 0.073,0.074 0.109,0.148 0,0.037 0,0.073 -0.036,0.073 -0.147,-0.036 -0.257,-0.185 -0.294,-0.331 0,-0.036 0.037,-0.036 0.073,-0.036 C -0.074,-0.11 -0.037,-0.074 0,0" /></g><g
             transform="translate(508.8853,106.7825)"
             id="g234"><path
               inkscape:connector-curvature="0"
               id="path236"
               style="fill:#ffffff;fill-opacity:1;fill-rule:nonzero;stroke:none"
               d="m 0,0 c -0.148,-0.074 -0.406,-0.074 -0.443,-0.257 -0.035,-0.074 0.11,-0.038 0.185,-0.038 0.258,0.112 0.553,0 0.772,0.221 C 0.44,0 0.331,-0.037 0.257,0.073 0.183,0.11 0.073,0.037 0,0" /></g><g
             transform="translate(512.8951,104.7947)"
             id="g238"><path
               inkscape:connector-curvature="0"
               id="path240"
               style="fill:#264896;fill-opacity:1;fill-rule:nonzero;stroke:none"
               d="m 0,0 c 0.227,0.051 0.441,0.185 0.662,0.258 l 0,-0.073 c 0.552,0.22 0.956,0.699 1.509,0.882 0.036,0 0.11,-0.073 0.185,-0.036 0.331,0.295 0.698,0.626 1.177,0.551 0,-0.036 0,-0.072 0.036,-0.072 0.038,0 0.074,0 0.074,0.036 C 3.496,1.436 3.349,1.326 3.202,1.215 3.165,1.178 3.202,1.142 3.239,1.142 3.422,1.215 3.533,1.362 3.716,1.436 3.679,1.398 3.679,1.326 3.643,1.289 2.945,0.772 2.43,0.185 1.876,-0.441 l -1.14,0 c 0,0.037 0,0.073 -0.037,0.073 -1.288,-0.11 -2.538,-0.073 -3.826,-0.073 0.735,0.111 1.471,0.331 2.207,0.405 0.295,0 0.59,-0.038 0.92,0.036" /></g><g
             transform="translate(527.3934,106.6721)"
             id="g242"><path
               inkscape:connector-curvature="0"
               id="path244"
               style="fill:#e31f25;fill-opacity:1;fill-rule:nonzero;stroke:none"
               d="M 0,0 C 0.088,0.266 0.185,0.552 0.035,0.81 -0.185,1.141 0.257,1.25 0.403,1.473 0.515,1.656 0.331,1.767 0.294,1.95 0.257,2.024 0.109,1.988 0.035,2.099 0.294,2.209 0.699,2.43 0.515,2.761 0.403,2.943 0.221,3.239 0.441,3.423 0.699,3.569 1.104,3.533 1.214,3.792 1.398,4.233 0.993,4.601 0.774,4.968 0.661,5.19 0.515,5.337 0.366,5.558 0.221,5.815 0.035,6.036 -0.036,6.33 -0.147,6.624 0,6.882 0,7.176 0.035,7.729 -0.11,8.28 -0.258,8.834 -0.367,9.09 -0.406,9.385 -0.517,9.643 c -0.036,0.148 -0.072,0.294 -0.182,0.44 -0.036,0.075 -0.036,0.185 0,0.259 0.146,0.11 0.293,0.221 0.441,0.368 0.111,0.184 0.038,0.442 -0.148,0.553 -0.256,0.109 -0.22,-0.259 -0.404,-0.331 l -0.111,0 c -0.035,0.109 0.037,0.146 0.111,0.22 0,0.037 0,0.111 -0.036,0.111 -0.147,0 -0.295,0.036 -0.331,0.109 -0.368,0.515 -0.885,0.774 -1.437,0.994 0.15,-0.036 0.295,-0.074 0.443,-0.074 0.258,-0.036 0.552,-0.036 0.772,0.074 0.185,0.073 0.222,0.368 0.295,0.552 0.073,0.147 -0.037,0.369 -0.11,0.479 -0.185,0.294 -0.48,0.478 -0.774,0.625 l 17.442,0 C 15.49,8.576 15.417,3.128 15.38,-2.319 c -6.881,-0.111 -13.761,0 -20.642,0 0.22,0.737 0.626,1.436 1.288,1.914 0.146,0.074 0.331,0.11 0.516,0.148 0.625,0 1.25,-0.184 1.876,-0.259 0.073,0 0.146,-0.036 0.222,-0.072 0.219,-0.038 0.476,-0.038 0.698,0.036 C -0.406,-0.479 -0.11,-0.331 0,0" /></g><g
             transform="translate(525.9941,113.9226)"
             id="g246"><path
               inkscape:connector-curvature="0"
               id="path248"
               style="fill:#9e9e9e;fill-opacity:1;fill-rule:nonzero;stroke:none"
               d="m 0,0 c -0.216,0.054 -0.405,0 -0.626,0 -0.294,-0.074 -0.551,-0.11 -0.808,-0.22 0.219,0.146 0.441,0.293 0.699,0.367 0.184,0.037 0.367,0.148 0.552,0.148 0.222,0.036 0.441,0.11 0.626,0.036 C 0.624,0.257 0.92,0.257 0.958,0.147 1.032,-0.074 0.846,-0.295 0.624,-0.441 0.59,-0.516 0.737,-0.552 0.737,-0.626 0.7,-0.699 0.59,-0.736 0.515,-0.736 0.443,-0.773 0.368,-0.883 0.295,-0.957 c 0.073,0 0,-0.11 0.073,-0.11 -0.146,-0.185 0.075,-0.552 -0.146,-0.626 -0.258,-0.074 -0.552,-0.074 -0.848,0 0.149,0.036 0.331,-0.037 0.443,0.11 l 0,0.148 c 0,0.036 -0.037,0.036 -0.072,0.036 -0.04,-0.036 -0.075,-0.036 -0.075,-0.036 0,0.074 -0.075,0.147 -0.111,0.147 -0.221,-0.037 -0.403,0.074 -0.552,0.221 0.11,0.036 0.221,0.074 0.331,0.036 0.111,0 0.074,0.185 0.185,0.258 l 0.109,0 c 0.222,0.295 0.663,0.368 0.736,0.663 0,0.074 -0.22,0.074 -0.368,0.11" /></g></g></g><g
         id="g250"><g
           clip-path="url(#clipPath254)"
           id="g252"><g
             transform="translate(499.5668,67.2906)"
             id="g258"><path
               inkscape:connector-curvature="0"
               id="path260"
               style="fill:#f07f1b;fill-opacity:1;fill-rule:nonzero;stroke:none"
               d="m 0,0 -1.725,0.152 c -0.004,-0.03 -1.495,-14.956 -0.43,-24.354 l 1.733,0 C -1.358,-17.348 0,0 0,0" /></g><g
             transform="translate(500.3116,83.5572)"
             id="g262"><path
               inkscape:connector-curvature="0"
               id="path264"
               style="fill:#1a4e99;fill-opacity:1;fill-rule:nonzero;stroke:none"
               d="M 0,0 C 0.033,0.235 0.064,0.495 0.096,0.712 L -1.655,0.705 C -2.064,-2.133 -2.594,-6.47 -3.022,-12.02 l 1.728,-0.133 C -0.89,-6.916 -0.395,-2.801 0,0" /></g><g
             transform="translate(490.7463,80.8366)"
             id="g266"><path
               inkscape:connector-curvature="0"
               id="path268"
               style="fill:#00aaba;fill-opacity:1;fill-rule:nonzero;stroke:none"
               d="M 0,0 C -0.274,1.577 -0.501,2.729 -0.646,3.434 L 1.071,3.427 C 1.617,0.172 3.116,-9.084 4.048,-17.587 l -1.723,-0.19 C 1.752,-12.554 0.485,-2.787 0,0" /></g><g
             transform="translate(493.2027,58.7365)"
             id="g270"><path
               inkscape:connector-curvature="0"
               id="path272"
               style="fill:#eb5686;fill-opacity:1;fill-rule:nonzero;stroke:none"
               d="M 0,0 1.711,0.277 C 1.717,0.24 2.673,-6.914 2.638,-15.65 L 0.88,-15.658 C 0.88,-6.894 0.001,-0.006 0,0" /></g><g
             transform="translate(488.3018,65.9908)"
             id="g274"><path
               inkscape:connector-curvature="0"
               id="path276"
               style="fill:#79b934;fill-opacity:1;fill-rule:nonzero;stroke:none"
               d="M 0,0 C -0.874,5.767 -1.581,9.148 -1.584,9.157 L 0.113,9.513 C 0.118,9.485 2.985,-3.902 4.285,-22.9 l -1.729,0 C 1.91,-13.46 0.874,-5.765 0,0" /></g><g
             transform="translate(502.2661,43.0829)"
             id="g278"><path
               inkscape:connector-curvature="0"
               id="path280"
               style="fill:#62549e;fill-opacity:1;fill-rule:nonzero;stroke:none"
               d="m 0,0 -1.705,0 c 0,14.935 0.715,24.233 2.391,31.276 L 2.344,30.881 C 0.7,23.975 -0.006,14.886 -0.006,0.091 L 0,0 Z" /></g><g
             transform="translate(485.0237,84.52)"
             id="g282"><path
               inkscape:connector-curvature="0"
               id="path284"
               style="fill:none;stroke:#2b2b2a;stroke-width:0.56699997;stroke-linecap:butt;stroke-linejoin:miter;stroke-miterlimit:4;stroke-dasharray:none;stroke-opacity:1"
               d="M 0,0 67.455,0" /></g><g
             transform="translate(509.3008,70.8785)"
             id="g286"><path
               inkscape:connector-curvature="0"
               id="path288"
               style="fill:#2b2b2a;fill-opacity:1;fill-rule:nonzero;stroke:none"
               d="M 0,0 C -0.005,0.048 -0.285,2.774 -0.285,2.774 -0.307,3.006 -0.312,3.21 -0.312,3.21 l -0.011,0 c 0,0 -0.038,-0.204 -0.103,-0.436 0,0 -0.764,-2.709 -0.786,-2.774 L -1.541,0 C -1.556,0.054 -2.316,2.779 -2.316,2.779 -2.375,3 -2.418,3.21 -2.418,3.21 l -0.011,0 c 0,0 -0.005,-0.21 -0.027,-0.431 0,0 -0.285,-2.725 -0.291,-2.779 l -0.425,0 0.442,3.705 0.522,0 0.743,-2.676 c 0.07,-0.248 0.097,-0.42 0.097,-0.42 l 0.01,0 c 0,0 0.028,0.172 0.098,0.414 l 0.765,2.682 0.522,0 L 0.469,0 0,0 Z" /></g><path
             inkscape:connector-curvature="0"
             id="path290"
             style="fill:#2b2b2a;fill-opacity:1;fill-rule:nonzero;stroke:none"
             d="m 510.467,73.782 0.474,0 0,-2.903 -0.474,0 0,2.903 z m 0.237,0.559 c -0.156,0 -0.28,0.119 -0.28,0.259 0,0.146 0.124,0.264 0.28,0.264 0.151,0 0.274,-0.118 0.274,-0.264 0,-0.14 -0.123,-0.259 -0.274,-0.259" /><g
             transform="translate(513.3638,70.8785)"
             id="g292"><path
               inkscape:connector-curvature="0"
               id="path294"
               style="fill:#2b2b2a;fill-opacity:1;fill-rule:nonzero;stroke:none"
               d="m 0,0 0,2.084 c 0,0.27 -0.113,0.566 -0.609,0.566 -0.269,0 -0.398,-0.038 -0.549,-0.102 l 0,-2.548 -0.474,0 0,2.752 c 0.258,0.124 0.598,0.205 1.061,0.205 0.808,0 1.045,-0.447 1.045,-0.862 L 0.474,0 0,0 Z" /></g><path
             inkscape:connector-curvature="0"
             id="path296"
             style="fill:#2b2b2a;fill-opacity:1;fill-rule:nonzero;stroke:none"
             d="m 514.633,73.782 0.474,0 0,-2.903 -0.474,0 0,2.903 z m 0.237,0.559 c -0.156,0 -0.28,0.119 -0.28,0.259 0,0.146 0.124,0.264 0.28,0.264 0.15,0 0.274,-0.118 0.274,-0.264 0,-0.14 -0.124,-0.259 -0.274,-0.259" /><g
             transform="translate(516.4628,70.8353)"
             id="g298"><path
               inkscape:connector-curvature="0"
               id="path300"
               style="fill:#2b2b2a;fill-opacity:1;fill-rule:nonzero;stroke:none"
               d="m 0,0 c -0.312,0 -0.587,0.081 -0.743,0.199 l 0.129,0.313 c 0.102,-0.087 0.307,-0.173 0.566,-0.173 0.323,0 0.538,0.221 0.538,0.501 0,0.302 -0.161,0.437 -0.479,0.555 -0.566,0.21 -0.679,0.512 -0.679,0.813 0,0.431 0.339,0.798 0.867,0.798 0.297,0 0.528,-0.098 0.679,-0.2 L 0.754,2.521 C 0.668,2.585 0.496,2.682 0.27,2.682 -0.048,2.682 -0.215,2.472 -0.215,2.224 -0.215,1.945 -0.011,1.81 0.27,1.702 0.835,1.487 0.975,1.185 0.975,0.851 0.975,0.41 0.593,0 0,0" /></g><g
             transform="translate(518.9283,70.8516)"
             id="g302"><path
               inkscape:connector-curvature="0"
               id="path304"
               style="fill:#2b2b2a;fill-opacity:1;fill-rule:nonzero;stroke:none"
               d="m 0,0 c -0.528,0 -0.722,0.377 -0.722,0.732 l 0,1.901 -0.334,0 0,0.297 0.334,0 0,0.668 0.474,0.145 0,-0.813 0.506,0 0,-0.297 -0.506,0 0,-1.89 c 0,-0.231 0.102,-0.42 0.366,-0.42 0.049,0 0.092,0.011 0.14,0.021 l 0,-0.301 C 0.204,0.027 0.118,0 0,0" /></g><g
             transform="translate(520.7908,74.0992)"
             id="g306"><path
               inkscape:connector-curvature="0"
               id="path308"
               style="fill:#2b2b2a;fill-opacity:1;fill-rule:nonzero;stroke:none"
               d="m 0,0 -0.614,0.733 c 0.049,0.129 0.313,0.124 0.506,0.005 L 0.27,0 0,0 Z m 0.022,-0.571 c -0.42,0 -0.733,-0.339 -0.722,-1.125 l 1.39,0.209 c 0,0.658 -0.254,0.916 -0.668,0.916 M -0.684,-1.95 c 0.054,-0.657 0.361,-0.98 0.883,-0.98 0.329,0 0.566,0.081 0.717,0.167 L 1.04,-3.075 c -0.178,-0.108 -0.485,-0.2 -0.879,-0.2 -0.759,0 -1.292,0.479 -1.292,1.514 0,0.985 0.485,1.497 1.168,1.497 0.696,0 1.115,-0.452 1.105,-1.422 L -0.684,-1.95 Z" /></g><g
             transform="translate(523.7189,73.469)"
             id="g310"><path
               inkscape:connector-curvature="0"
               id="path312"
               style="fill:#2b2b2a;fill-opacity:1;fill-rule:nonzero;stroke:none"
               d="m 0,0 c -0.237,0.07 -0.507,0.049 -0.662,-0.054 l 0,-2.536 -0.475,0 0,2.746 c 0.286,0.146 0.561,0.221 1.25,0.205 L 0,0 Z" /></g><g
             transform="translate(525.2853,73.5285)"
             id="g314"><path
               inkscape:connector-curvature="0"
               id="path316"
               style="fill:#2b2b2a;fill-opacity:1;fill-rule:nonzero;stroke:none"
               d="m 0,0 c -0.42,0 -0.733,-0.339 -0.722,-1.126 l 1.39,0.21 C 0.668,-0.259 0.414,0 0,0 m -0.705,-1.379 c 0.053,-0.657 0.361,-0.98 0.882,-0.98 0.33,0 0.566,0.081 0.717,0.167 l 0.124,-0.312 c -0.178,-0.109 -0.485,-0.2 -0.878,-0.2 -0.76,0 -1.292,0.48 -1.292,1.514 0,0.985 0.484,1.497 1.168,1.497 0.695,0 1.115,-0.453 1.105,-1.422 l -1.826,-0.264 z" /></g><g
             transform="translate(507.8307,67.2474)"
             id="g318"><path
               inkscape:connector-curvature="0"
               id="path320"
               style="fill:#2b2b2a;fill-opacity:1;fill-rule:nonzero;stroke:none"
               d="m 0,0 c -0.118,0.032 -0.237,0.054 -0.361,0.054 -0.673,0 -0.888,-0.582 -0.888,-1.212 0,-0.684 0.237,-1.185 0.829,-1.185 0.194,0 0.328,0.022 0.42,0.081 L 0,0 Z m -0.441,-2.656 c -0.83,0 -1.277,0.582 -1.277,1.461 0,0.963 0.511,1.524 1.26,1.524 0.162,0 0.302,-0.022 0.458,-0.065 l 0,1.363 0.469,0 0,-4.077 c -0.195,-0.119 -0.506,-0.206 -0.91,-0.206" /></g><g
             transform="translate(510.1021,67.2961)"
             id="g322"><path
               inkscape:connector-curvature="0"
               id="path324"
               style="fill:#2b2b2a;fill-opacity:1;fill-rule:nonzero;stroke:none"
               d="m 0,0 c -0.42,0 -0.733,-0.339 -0.722,-1.126 l 1.39,0.21 C 0.668,-0.259 0.414,0 0,0 m -0.705,-1.379 c 0.053,-0.657 0.361,-0.98 0.882,-0.98 0.33,0 0.566,0.081 0.717,0.167 l 0.124,-0.312 c -0.178,-0.109 -0.485,-0.2 -0.878,-0.2 -0.76,0 -1.292,0.48 -1.292,1.514 0,0.985 0.484,1.497 1.168,1.497 0.695,0 1.115,-0.453 1.105,-1.422 l -1.826,-0.264 z" /></g><path
             inkscape:connector-curvature="0"
             id="path326"
             style="fill:#2b2b2a;fill-opacity:1;fill-rule:nonzero;stroke:none"
             d="m 513.39,68.874 0.474,0 0,-4.228 -0.474,0 0,4.228 z" /><g
             transform="translate(515.0049,66.9406)"
             id="g328"><path
               inkscape:connector-curvature="0"
               id="path330"
               style="fill:#2b2b2a;fill-opacity:1;fill-rule:nonzero;stroke:none"
               d="M 0,0 -0.242,0 -0.35,1.346 c 0.054,0.076 0.135,0.114 0.232,0.114 0.096,0 0.177,-0.038 0.231,-0.114 L 0,0 Z" /></g><g
             transform="translate(515.904,64.646)"
             id="g332"><path
               inkscape:connector-curvature="0"
               id="path334"
               style="fill:#2b2b2a;fill-opacity:1;fill-rule:nonzero;stroke:none"
               d="m 0,0 0,3.705 1.718,0 0,-0.333 -1.223,0 0,-1.293 1.099,0 0,-0.329 -1.099,0 0,-1.416 1.223,0 L 1.718,0 0,0 Z" /></g><g
             transform="translate(519.8828,64.646)"
             id="g336"><path
               inkscape:connector-curvature="0"
               id="path338"
               style="fill:#2b2b2a;fill-opacity:1;fill-rule:nonzero;stroke:none"
               d="m 0,0 0,2.084 c 0,0.27 -0.113,0.566 -0.609,0.566 -0.269,0 -0.398,-0.038 -0.549,-0.102 l 0,-2.548 -0.474,0 0,2.752 c 0.258,0.124 0.598,0.205 1.061,0.205 0.808,0 1.045,-0.447 1.045,-0.862 L 0.474,0 0,0 Z" /></g><g
             transform="translate(522.251,64.646)"
             id="g340"><path
               inkscape:connector-curvature="0"
               id="path342"
               style="fill:#2b2b2a;fill-opacity:1;fill-rule:nonzero;stroke:none"
               d="m 0,0 -0.425,0 -0.965,2.903 0.506,0 0.609,-2.079 C -0.216,0.63 -0.199,0.469 -0.199,0.469 l 0.01,0 c 0,0 0.012,0.156 0.071,0.355 l 0.619,2.079 0.441,0 L 0,0 Z" /></g><path
             inkscape:connector-curvature="0"
             id="path344"
             style="fill:#2b2b2a;fill-opacity:1;fill-rule:nonzero;stroke:none"
             d="m 523.747,67.549 0.474,0 0,-2.903 -0.474,0 0,2.903 z m 0.237,0.56 c -0.157,0 -0.281,0.119 -0.281,0.259 0,0.145 0.124,0.264 0.281,0.264 0.15,0 0.274,-0.119 0.274,-0.264 0,-0.14 -0.124,-0.259 -0.274,-0.259" /><g
             transform="translate(526.1473,67.2366)"
             id="g346"><path
               inkscape:connector-curvature="0"
               id="path348"
               style="fill:#2b2b2a;fill-opacity:1;fill-rule:nonzero;stroke:none"
               d="m 0,0 c -0.237,0.07 -0.507,0.049 -0.662,-0.054 l 0,-2.536 -0.475,0 0,2.746 c 0.286,0.146 0.561,0.221 1.25,0.205 L 0,0 Z" /></g><g
             transform="translate(527.6971,67.3013)"
             id="g350"><path
               inkscape:connector-curvature="0"
               id="path352"
               style="fill:#2b2b2a;fill-opacity:1;fill-rule:nonzero;stroke:none"
               d="m 0,0 c -0.555,0 -0.663,-0.619 -0.663,-1.206 0,-0.588 0.119,-1.175 0.663,-1.175 0.555,0 0.657,0.593 0.657,1.175 C 0.657,-0.625 0.555,0 0,0 m 0,-2.709 c -0.792,0 -1.137,0.652 -1.137,1.503 0,0.867 0.35,1.507 1.131,1.507 0.798,0 1.137,-0.64 1.137,-1.507 0,-0.851 -0.345,-1.503 -1.131,-1.503" /></g><g
             transform="translate(531.1099,64.646)"
             id="g354"><path
               inkscape:connector-curvature="0"
               id="path356"
               style="fill:#2b2b2a;fill-opacity:1;fill-rule:nonzero;stroke:none"
               d="m 0,0 0,2.084 c 0,0.27 -0.113,0.566 -0.609,0.566 -0.269,0 -0.398,-0.038 -0.549,-0.102 l 0,-2.548 -0.474,0 0,2.752 c 0.258,0.124 0.598,0.205 1.061,0.205 0.808,0 1.045,-0.447 1.045,-0.862 L 0.474,0 0,0 Z" /></g><g
             transform="translate(533.9788,64.646)"
             id="g358"><path
               inkscape:connector-curvature="0"
               id="path360"
               style="fill:#2b2b2a;fill-opacity:1;fill-rule:nonzero;stroke:none"
               d="m 0,0 0,2.084 c 0,0.27 -0.113,0.566 -0.609,0.566 -0.269,0 -0.398,-0.038 -0.549,-0.102 l 0,-2.548 -0.474,0 0,2.752 c 0.258,0.124 0.598,0.205 1.061,0.205 0.808,0 1.045,-0.447 1.045,-0.862 L 0.474,0 0,0 Z" /></g><g
             transform="translate(536.2551,67.2961)"
             id="g362"><path
               inkscape:connector-curvature="0"
               id="path364"
               style="fill:#2b2b2a;fill-opacity:1;fill-rule:nonzero;stroke:none"
               d="m 0,0 c -0.42,0 -0.733,-0.339 -0.722,-1.126 l 1.39,0.21 C 0.668,-0.259 0.414,0 0,0 m -0.705,-1.379 c 0.053,-0.657 0.361,-0.98 0.882,-0.98 0.33,0 0.566,0.081 0.717,0.167 l 0.124,-0.312 c -0.178,-0.109 -0.485,-0.2 -0.878,-0.2 -0.76,0 -1.292,0.48 -1.292,1.514 0,0.985 0.484,1.497 1.168,1.497 0.695,0 1.115,-0.453 1.105,-1.422 l -1.826,-0.264 z" /></g><g
             transform="translate(541.2891,64.646)"
             id="g366"><path
               inkscape:connector-curvature="0"
               id="path368"
               style="fill:#2b2b2a;fill-opacity:1;fill-rule:nonzero;stroke:none"
               d="m 0,0 0,2.09 c 0,0.291 -0.14,0.554 -0.56,0.554 -0.242,0 -0.431,-0.08 -0.598,-0.258 l 0,-2.386 -0.474,0 0,2.112 c 0,0.323 -0.216,0.538 -0.635,0.538 -0.237,0 -0.366,-0.032 -0.523,-0.097 l 0,-2.553 -0.474,0 0,2.752 c 0.264,0.13 0.544,0.205 1.007,0.205 0.447,0 0.716,-0.135 0.889,-0.35 0.199,0.21 0.495,0.35 0.899,0.35 0.695,0 0.943,-0.453 0.943,-0.856 L 0.474,0 0,0 Z" /></g><g
             transform="translate(543.5648,67.2961)"
             id="g370"><path
               inkscape:connector-curvature="0"
               id="path372"
               style="fill:#2b2b2a;fill-opacity:1;fill-rule:nonzero;stroke:none"
               d="m 0,0 c -0.42,0 -0.733,-0.339 -0.722,-1.126 l 1.39,0.21 C 0.668,-0.259 0.414,0 0,0 m -0.705,-1.379 c 0.053,-0.657 0.361,-0.98 0.882,-0.98 0.33,0 0.566,0.081 0.717,0.167 l 0.124,-0.312 c -0.178,-0.109 -0.485,-0.2 -0.878,-0.2 -0.76,0 -1.292,0.48 -1.292,1.514 0,0.985 0.484,1.497 1.168,1.497 0.695,0 1.115,-0.453 1.105,-1.422 l -1.826,-0.264 z" /></g><g
             transform="translate(546.9671,64.646)"
             id="g374"><path
               inkscape:connector-curvature="0"
               id="path376"
               style="fill:#2b2b2a;fill-opacity:1;fill-rule:nonzero;stroke:none"
               d="m 0,0 0,2.084 c 0,0.27 -0.113,0.566 -0.609,0.566 -0.269,0 -0.398,-0.038 -0.549,-0.102 l 0,-2.548 -0.474,0 0,2.752 c 0.258,0.124 0.598,0.205 1.061,0.205 0.808,0 1.045,-0.447 1.045,-0.862 L 0.474,0 0,0 Z" /></g><g
             transform="translate(549.0768,64.6192)"
             id="g378"><path
               inkscape:connector-curvature="0"
               id="path380"
               style="fill:#2b2b2a;fill-opacity:1;fill-rule:nonzero;stroke:none"
               d="m 0,0 c -0.528,0 -0.722,0.377 -0.722,0.732 l 0,1.901 -0.334,0 0,0.297 0.334,0 0,0.668 0.474,0.145 0,-0.813 0.506,0 0,-0.297 -0.506,0 0,-1.89 c 0,-0.231 0.102,-0.42 0.366,-0.42 0.049,0 0.092,0.011 0.14,0.021 l 0,-0.301 C 0.204,0.027 0.118,0 0,0" /></g><g
             transform="translate(550.0236,63.7358)"
             id="g382"><path
               inkscape:connector-curvature="0"
               id="path384"
               style="fill:#2b2b2a;fill-opacity:1;fill-rule:nonzero;stroke:none"
               d="M 0,0 -0.28,0 0.177,1.33 C 0.248,1.411 0.344,1.465 0.496,1.465 0.636,1.465 0.69,1.401 0.7,1.33 L 0,0 Z" /></g><g
             transform="translate(507.8307,61.015)"
             id="g386"><path
               inkscape:connector-curvature="0"
               id="path388"
               style="fill:#2b2b2a;fill-opacity:1;fill-rule:nonzero;stroke:none"
               d="m 0,0 c -0.118,0.033 -0.237,0.054 -0.361,0.054 -0.673,0 -0.888,-0.582 -0.888,-1.212 0,-0.684 0.237,-1.185 0.829,-1.185 0.194,0 0.328,0.022 0.42,0.081 L 0,0 Z m -0.441,-2.656 c -0.83,0 -1.277,0.583 -1.277,1.461 0,0.964 0.511,1.524 1.26,1.524 0.162,0 0.302,-0.022 0.458,-0.065 l 0,1.363 0.469,0 0,-4.077 c -0.195,-0.119 -0.506,-0.206 -0.91,-0.206" /></g><g
             transform="translate(510.1021,61.0636)"
             id="g390"><path
               inkscape:connector-curvature="0"
               id="path392"
               style="fill:#2b2b2a;fill-opacity:1;fill-rule:nonzero;stroke:none"
               d="m 0,0 c -0.42,0 -0.733,-0.339 -0.722,-1.125 l 1.39,0.209 C 0.668,-0.258 0.414,0 0,0 m -0.705,-1.379 c 0.053,-0.657 0.361,-0.98 0.882,-0.98 0.33,0 0.566,0.081 0.717,0.167 l 0.124,-0.312 c -0.178,-0.108 -0.485,-0.2 -0.878,-0.2 -0.76,0 -1.292,0.48 -1.292,1.514 0,0.985 0.484,1.497 1.168,1.497 0.695,0 1.115,-0.453 1.105,-1.422 l -1.826,-0.264 z" /></g><path
             inkscape:connector-curvature="0"
             id="path394"
             style="fill:#2b2b2a;fill-opacity:1;fill-rule:nonzero;stroke:none"
             d="m 513.39,62.642 0.474,0 0,-4.228 -0.474,0 0,4.228 z" /><g
             transform="translate(515.0049,60.7085)"
             id="g396"><path
               inkscape:connector-curvature="0"
               id="path398"
               style="fill:#2b2b2a;fill-opacity:1;fill-rule:nonzero;stroke:none"
               d="M 0,0 -0.242,0 -0.35,1.346 c 0.054,0.076 0.135,0.114 0.232,0.114 0.096,0 0.177,-0.038 0.231,-0.114 L 0,0 Z" /></g><g
             transform="translate(516.787,62.3993)"
             id="g400"><path
               inkscape:connector-curvature="0"
               id="path402"
               style="fill:#2b2b2a;fill-opacity:1;fill-rule:nonzero;stroke:none"
               d="M 0,0 -0.27,0 0.108,0.738 C 0.296,0.856 0.565,0.862 0.614,0.733 L 0,0 Z m -0.883,-3.985 0,3.705 1.718,0 0,-0.334 -1.223,0 0,-1.293 1.099,0 0,-0.328 -1.099,0 0,-1.417 1.223,0 0,-0.333 -1.718,0 z" /></g><g
             transform="translate(519.8773,58.4139)"
             id="g404"><path
               inkscape:connector-curvature="0"
               id="path406"
               style="fill:#2b2b2a;fill-opacity:1;fill-rule:nonzero;stroke:none"
               d="m 0,0 0,2.084 c 0,0.27 -0.113,0.566 -0.609,0.566 -0.269,0 -0.398,-0.038 -0.549,-0.103 l 0,-2.547 -0.474,0 0,2.752 c 0.258,0.124 0.598,0.205 1.061,0.205 0.808,0 1.045,-0.447 1.045,-0.862 L 0.474,0 0,0 Z" /></g><g
             transform="translate(522.1536,61.0636)"
             id="g408"><path
               inkscape:connector-curvature="0"
               id="path410"
               style="fill:#2b2b2a;fill-opacity:1;fill-rule:nonzero;stroke:none"
               d="m 0,0 c -0.42,0 -0.733,-0.339 -0.722,-1.125 l 1.39,0.209 C 0.668,-0.258 0.414,0 0,0 m -0.705,-1.379 c 0.053,-0.657 0.361,-0.98 0.882,-0.98 0.33,0 0.566,0.081 0.717,0.167 l 0.124,-0.312 c -0.178,-0.108 -0.485,-0.2 -0.878,-0.2 -0.76,0 -1.292,0.48 -1.292,1.514 0,0.985 0.484,1.497 1.168,1.497 0.695,0 1.115,-0.453 1.105,-1.422 l -1.826,-0.264 z" /></g><g
             transform="translate(525.0601,61.0044)"
             id="g412"><path
               inkscape:connector-curvature="0"
               id="path414"
               style="fill:#2b2b2a;fill-opacity:1;fill-rule:nonzero;stroke:none"
               d="m 0,0 c -0.237,0.07 -0.507,0.049 -0.662,-0.054 l 0,-2.536 -0.475,0 0,2.746 c 0.286,0.145 0.561,0.221 1.25,0.205 L 0,0 Z" /></g><g
             transform="translate(527.1975,61.0044)"
             id="g416"><path
               inkscape:connector-curvature="0"
               id="path418"
               style="fill:#2b2b2a;fill-opacity:1;fill-rule:nonzero;stroke:none"
               d="m 0,0 c -0.108,0.059 -0.248,0.081 -0.415,0.081 -0.587,0 -0.84,-0.491 -0.84,-1.255 0,-0.749 0.242,-1.169 0.797,-1.169 0.183,0 0.345,0.048 0.458,0.119 L 0,0 Z m -0.657,-3.808 c -0.383,0 -0.706,0.081 -0.9,0.199 l 0.146,0.318 c 0.161,-0.092 0.414,-0.172 0.673,-0.172 0.533,0 0.738,0.323 0.738,0.759 l 0,0.205 c -0.13,-0.076 -0.329,-0.124 -0.582,-0.124 -0.695,0 -1.142,0.549 -1.142,1.433 0,0.92 0.447,1.556 1.32,1.556 C 0,0.366 0.291,0.27 0.458,0.161 l 0,-2.811 c 0,-0.733 -0.421,-1.158 -1.115,-1.158" /></g><path
             inkscape:connector-curvature="0"
             id="path420"
             style="fill:#2b2b2a;fill-opacity:1;fill-rule:nonzero;stroke:none"
             d="m 528.451,61.317 0.474,0 0,-2.903 -0.474,0 0,2.903 z m 0.236,0.56 c -0.155,0 -0.28,0.118 -0.28,0.258 0,0.146 0.125,0.264 0.28,0.264 0.151,0 0.275,-0.118 0.275,-0.264 0,-0.14 -0.124,-0.258 -0.275,-0.258" /><g
             transform="translate(530.7547,61.0636)"
             id="g422"><path
               inkscape:connector-curvature="0"
               id="path424"
               style="fill:#2b2b2a;fill-opacity:1;fill-rule:nonzero;stroke:none"
               d="m 0,0 c -0.42,0 -0.733,-0.339 -0.722,-1.125 l 1.39,0.209 C 0.668,-0.258 0.414,0 0,0 m -0.705,-1.379 c 0.053,-0.657 0.361,-0.98 0.882,-0.98 0.33,0 0.566,0.081 0.717,0.167 l 0.124,-0.312 c -0.178,-0.108 -0.485,-0.2 -0.878,-0.2 -0.76,0 -1.292,0.48 -1.292,1.514 0,0.985 0.484,1.497 1.168,1.497 0.695,0 1.115,-0.453 1.105,-1.422 l -1.826,-0.264 z" /></g><g
             transform="translate(507.2652,54.8312)"
             id="g426"><path
               inkscape:connector-curvature="0"
               id="path428"
               style="fill:#2b2b2a;fill-opacity:1;fill-rule:nonzero;stroke:none"
               d="m 0,0 c -0.42,0 -0.733,-0.339 -0.722,-1.125 l 1.39,0.209 C 0.668,-0.258 0.414,0 0,0 m -0.705,-1.379 c 0.053,-0.657 0.361,-0.98 0.882,-0.98 0.33,0 0.566,0.081 0.717,0.167 l 0.124,-0.312 c -0.178,-0.108 -0.485,-0.2 -0.878,-0.2 -0.76,0 -1.292,0.48 -1.292,1.514 0,0.985 0.484,1.497 1.168,1.497 0.695,0 1.115,-0.453 1.105,-1.422 l -1.826,-0.264 z" /></g><g
             transform="translate(509.8868,52.1543)"
             id="g430"><path
               inkscape:connector-curvature="0"
               id="path432"
               style="fill:#2b2b2a;fill-opacity:1;fill-rule:nonzero;stroke:none"
               d="m 0,0 c -0.528,0 -0.722,0.377 -0.722,0.733 l 0,1.9 -0.334,0 0,0.297 0.334,0 0,0.668 0.474,0.145 0,-0.813 0.506,0 0,-0.297 -0.506,0 0,-1.89 c 0,-0.231 0.102,-0.42 0.366,-0.42 0.049,0 0.092,0.011 0.14,0.021 l 0,-0.301 C 0.204,0.027 0.118,0 0,0" /></g><g
             transform="translate(513.8219,54.7825)"
             id="g434"><path
               inkscape:connector-curvature="0"
               id="path436"
               style="fill:#2b2b2a;fill-opacity:1;fill-rule:nonzero;stroke:none"
               d="m 0,0 c -0.118,0.033 -0.237,0.054 -0.361,0.054 -0.673,0 -0.888,-0.582 -0.888,-1.212 0,-0.684 0.237,-1.185 0.829,-1.185 0.194,0 0.328,0.022 0.42,0.081 L 0,0 Z m -0.441,-2.656 c -0.83,0 -1.277,0.583 -1.277,1.461 0,0.964 0.511,1.524 1.26,1.524 0.162,0 0.302,-0.022 0.458,-0.065 l 0,1.363 0.469,0 0,-4.077 c -0.195,-0.119 -0.506,-0.206 -0.91,-0.206" /></g><g
             transform="translate(516.0933,54.8312)"
             id="g438"><path
               inkscape:connector-curvature="0"
               id="path440"
               style="fill:#2b2b2a;fill-opacity:1;fill-rule:nonzero;stroke:none"
               d="m 0,0 c -0.42,0 -0.733,-0.339 -0.722,-1.125 l 1.39,0.209 C 0.668,-0.258 0.414,0 0,0 m -0.705,-1.379 c 0.053,-0.657 0.36,-0.98 0.882,-0.98 0.329,0 0.566,0.081 0.717,0.167 l 0.124,-0.312 c -0.178,-0.108 -0.485,-0.2 -0.878,-0.2 -0.76,0 -1.292,0.48 -1.292,1.514 0,0.985 0.484,1.497 1.168,1.497 0.695,0 1.115,-0.453 1.105,-1.422 l -1.826,-0.264 z" /></g><path
             inkscape:connector-curvature="0"
             id="path442"
             style="fill:#2b2b2a;fill-opacity:1;fill-rule:nonzero;stroke:none"
             d="m 519.382,56.41 0.474,0 0,-4.228 -0.474,0 0,4.228 z" /><g
             transform="translate(522.1326,53.8292)"
             id="g444"><path
               inkscape:connector-curvature="0"
               id="path446"
               style="fill:#2b2b2a;fill-opacity:1;fill-rule:nonzero;stroke:none"
               d="m 0,0 c -0.733,-0.091 -1.169,-0.248 -1.169,-0.835 0,-0.42 0.259,-0.592 0.69,-0.592 0.183,0 0.361,0.032 0.479,0.097 L 0,0 Z m -0.517,-1.702 c -0.754,0 -1.104,0.329 -1.104,0.857 0,0.77 0.722,0.996 1.621,1.088 L 0,0.42 c 0,0.447 -0.269,0.577 -0.641,0.577 -0.28,0 -0.538,-0.103 -0.7,-0.183 l -0.113,0.28 c 0.167,0.091 0.49,0.215 0.889,0.215 0.538,0 1.012,-0.232 1.012,-0.943 l 0,-1.863 c -0.221,-0.124 -0.56,-0.205 -0.964,-0.205" /></g><g
             transform="translate(527.9035,52.1815)"
             id="g448"><path
               inkscape:connector-curvature="0"
               id="path450"
               style="fill:#2b2b2a;fill-opacity:1;fill-rule:nonzero;stroke:none"
               d="M 0,0 C -0.005,0.048 -0.285,2.774 -0.285,2.774 -0.307,3.006 -0.312,3.21 -0.312,3.21 l -0.011,0 c 0,0 -0.038,-0.204 -0.102,-0.436 0,0 -0.765,-2.709 -0.787,-2.774 L -1.541,0 C -1.556,0.054 -2.316,2.779 -2.316,2.779 -2.375,3 -2.418,3.21 -2.418,3.21 l -0.011,0 c 0,0 -0.005,-0.21 -0.027,-0.431 0,0 -0.285,-2.725 -0.291,-2.779 l -0.425,0 0.442,3.705 0.522,0 0.743,-2.677 c 0.07,-0.247 0.097,-0.419 0.097,-0.419 l 0.01,0 c 0,0 0.028,0.172 0.098,0.414 l 0.765,2.682 0.522,0 L 0.469,0 0,0 Z" /></g><g
             transform="translate(530.0769,54.8312)"
             id="g452"><path
               inkscape:connector-curvature="0"
               id="path454"
               style="fill:#2b2b2a;fill-opacity:1;fill-rule:nonzero;stroke:none"
               d="m 0,0 c -0.42,0 -0.733,-0.339 -0.722,-1.125 l 1.39,0.209 C 0.668,-0.258 0.414,0 0,0 m -0.705,-1.379 c 0.053,-0.657 0.361,-0.98 0.882,-0.98 0.33,0 0.566,0.081 0.717,0.167 l 0.124,-0.312 c -0.178,-0.108 -0.485,-0.2 -0.878,-0.2 -0.76,0 -1.292,0.48 -1.292,1.514 0,0.985 0.484,1.497 1.168,1.497 0.695,0 1.115,-0.453 1.105,-1.422 l -1.826,-0.264 z" /></g><g
             transform="translate(532.9834,54.772)"
             id="g456"><path
               inkscape:connector-curvature="0"
               id="path458"
               style="fill:#2b2b2a;fill-opacity:1;fill-rule:nonzero;stroke:none"
               d="m 0,0 c -0.237,0.07 -0.507,0.049 -0.662,-0.054 l 0,-2.536 -0.475,0 0,2.746 c 0.286,0.145 0.561,0.221 1.25,0.205 L 0,0 Z" /></g></g></g></g></g></svg>